<?xml version="1.0" standalone="no"?>
<!DOCTYPE svg PUBLIC "-//W3C//DTD SVG 20010904//EN"
 "http://www.w3.org/TR/2001/REC-SVG-20010904/DTD/svg10.dtd">
<svg version="1.0" xmlns="http://www.w3.org/2000/svg"
 width="975.000000pt" height="858.000000pt" viewBox="0 0 975.000000 858.000000"
 preserveAspectRatio="xMidYMid meet">

<g transform="translate(0.000000,858.000000) scale(0.100000,-0.100000)"
fill="#000000" stroke="none">
<path d="M8790 8408 c0 -36 4 -35 14 5 4 16 2 27 -4 27 -5 0 -10 -14 -10 -32z"/>
<path d="M4064 8222 c5 -8 167 -4 175 4 2 2 -37 4 -88 4 -51 0 -90 -4 -87 -8z"/>
<path d="M3913 8204 c-160 -35 -274 -99 -413 -230 -64 -61 -95 -84 -122 -89
-91 -17 -248 -116 -369 -232 -47 -46 -88 -80 -92 -77 -3 3 -27 -26 -54 -65
-26 -40 -72 -106 -102 -147 -37 -52 -50 -79 -43 -86 7 -7 22 10 48 55 21 36
41 65 45 64 3 -1 32 34 64 78 65 91 180 212 243 256 23 17 42 28 42 25 0 -3
30 15 67 41 63 43 173 90 173 74 0 -4 -11 -22 -25 -41 -28 -38 -29 -40 -16
-40 5 0 20 17 32 38 13 20 52 68 88 106 153 159 277 226 506 270 56 11 62 14
30 14 -22 0 -68 -6 -102 -14z"/>
<path d="M3973 8167 c-51 -5 -93 -14 -93 -20 0 -6 18 -6 48 -2 165 26 365 9
632 -52 17 -4 22 -2 15 5 -21 22 -422 87 -495 80 -8 0 -57 -5 -107 -11z"/>
<path d="M4723 8033 c-7 -3 -13 -9 -13 -14 0 -4 7 -6 16 -2 19 7 104 -36 104
-53 0 -7 11 -15 24 -18 69 -17 417 -405 474 -528 15 -32 30 -58 35 -58 10 0
-37 92 -76 150 -92 136 -300 361 -406 439 -76 56 -141 90 -158 84z"/>
<path d="M3284 7974 c-27 -21 -71 -58 -97 -83 -64 -61 -271 -301 -265 -307 3
-2 38 35 79 83 78 94 252 271 309 315 53 41 30 33 -26 -8z"/>
<path d="M4560 7760 c-12 -8 -12 -10 3 -10 27 0 72 -33 150 -109 37 -36 67
-60 67 -54 0 14 -137 142 -177 165 -19 11 -34 14 -43 8z"/>
<path d="M5058 7497 c49 -53 97 -136 121 -209 7 -21 17 -38 22 -38 11 0 -34
121 -63 169 -28 45 -107 131 -121 131 -5 0 13 -24 41 -53z"/>
<path d="M3872 7507 c-7 -8 -7 -18 -2 -27 8 -12 10 -10 10 8 0 32 21 27 77
-17 126 -99 276 -377 299 -553 4 -26 11 -51 17 -55 7 -4 8 9 3 37 -10 62 11
40 58 -58 43 -92 66 -190 66 -284 0 -42 4 -68 11 -68 14 0 3 142 -18 230 -18
73 -73 191 -106 224 -12 12 -33 56 -46 97 -57 178 -186 380 -288 450 -46 32
-65 36 -81 16z"/>
<path d="M5240 7505 c0 -4 7 -20 17 -38 9 -18 31 -75 50 -127 27 -78 30 -97
19 -105 -11 -9 -9 -19 10 -59 13 -26 24 -68 25 -93 4 -70 19 -61 19 12 0 78
-43 233 -95 343 -30 63 -45 85 -45 67z m110 -310 c0 -5 -5 -3 -10 5 -5 8 -10
20 -10 25 0 6 5 3 10 -5 5 -8 10 -19 10 -25z"/>
<path d="M4932 7334 c80 -166 125 -280 115 -291 -2 -1 -23 31 -46 72 -24 41
-48 75 -53 75 -6 0 -8 -29 -3 -79 8 -89 -3 -251 -16 -251 -5 0 -9 8 -9 18 0
22 -30 125 -35 120 -2 -2 5 -39 15 -83 11 -44 19 -108 20 -142 0 -35 4 -63 9
-63 5 0 13 -25 16 -55 8 -57 1 -84 -11 -49 -16 47 -85 186 -90 181 -3 -2 15
-47 39 -98 24 -52 47 -104 51 -117 4 -13 13 -21 19 -19 13 4 13 23 -4 167 -8
68 -9 109 -1 145 6 28 10 103 9 168 -1 64 0 117 3 117 3 0 22 -30 42 -67 20
-38 44 -77 52 -88 15 -19 15 -19 16 12 0 58 -100 309 -131 329 -6 4 -10 3 -7
-2z"/>
<path d="M2662 7223 c-27 -54 -62 -159 -62 -186 1 -12 11 10 24 48 13 39 33
92 46 118 27 57 20 76 -8 20z"/>
<path d="M5270 7214 c0 -6 7 -44 16 -83 17 -76 13 -116 -9 -89 -20 24 -140
124 -164 137 -27 14 -60 14 -68 1 -4 -7 2 -9 17 -5 26 7 70 -22 170 -108 45
-39 61 -60 74 -101 9 -28 27 -76 41 -107 l25 -57 -66 -128 c-47 -94 -79 -143
-117 -181 -29 -29 -48 -53 -42 -53 6 0 31 21 55 46 65 68 226 197 238 189 5
-3 10 0 10 7 0 8 22 27 50 43 27 16 48 31 45 33 -2 3 -24 -7 -49 -22 -24 -14
-49 -26 -55 -26 -6 0 -20 32 -32 72 -15 49 -24 67 -29 54 -9 -27 -61 108 -66
174 -5 72 -24 181 -35 200 -5 8 -9 10 -9 4z m136 -474 l27 -41 -24 -17 c-13
-9 -48 -36 -77 -60 -30 -24 -53 -40 -51 -35 12 29 93 193 96 193 1 0 15 -18
29 -40z"/>
<path d="M3596 7178 c-12 -25 20 -134 62 -211 20 -38 65 -105 100 -150 107
-140 102 -117 41 -192 -50 -62 -54 -65 -62 -43 -5 13 -15 70 -23 128 l-13 105
5 -105 c11 -203 15 -221 64 -342 16 -39 27 -74 24 -77 -7 -8 -54 47 -101 118
-24 36 -43 57 -43 47 0 -38 97 -249 151 -327 18 -26 18 -26 -6 -39 -34 -18
-151 -16 -208 4 -59 21 -75 14 -21 -9 58 -25 192 -32 231 -12 27 15 32 15 43
2 7 -8 17 -15 22 -15 5 0 -9 24 -31 53 -21 28 -62 98 -90 154 -51 103 -63 134
-36 99 7 -10 30 -35 49 -57 20 -21 36 -42 36 -46 0 -4 17 -16 36 -26 l36 -18
-5 23 c-3 13 -11 38 -18 55 -12 29 -11 35 3 49 15 15 17 14 32 -9 9 -13 16
-29 15 -33 -1 -5 2 -18 7 -29 8 -18 9 -17 14 9 7 42 24 42 39 1 12 -35 35 -51
25 -17 -5 16 -5 16 6 -1 6 -9 15 -36 19 -60 l9 -42 1 35 c1 20 -8 53 -18 73
-14 27 -16 39 -7 45 6 4 29 31 51 60 34 45 44 52 64 47 17 -4 22 -2 18 7 -20
49 -20 51 -8 44 8 -5 11 -3 9 6 -3 14 147 198 162 198 5 0 14 -9 20 -20 6 -11
15 -20 21 -20 6 0 1 12 -10 26 -12 15 -21 33 -21 40 0 8 -4 13 -9 12 -5 -2
-24 24 -41 57 -92 173 -270 405 -311 405 -10 0 -19 -3 -19 -7 1 -12 26 -43 35
-43 4 0 4 8 1 18 -9 28 99 -94 152 -172 27 -39 70 -106 95 -148 42 -71 44 -78
26 -83 -36 -12 -228 107 -335 207 -42 40 -68 58 -75 51 -12 -12 21 -123 63
-211 29 -60 30 -65 14 -80 -19 -19 -10 -27 -96 84 -111 143 -166 248 -179 343
-5 37 -10 50 -15 39z m399 -336 c58 -43 229 -132 253 -132 7 0 12 -6 12 -12 0
-16 -114 -151 -132 -157 -15 -5 7 23 70 91 49 51 54 82 7 39 -31 -28 -105
-116 -105 -124 0 -3 -27 -35 -61 -71 -39 -42 -76 -70 -102 -80 l-42 -16 39 6
c37 5 39 5 25 -13 -16 -21 -52 -52 -59 -53 -3 0 -10 12 -17 26 -11 23 -7 31
40 91 93 119 128 154 148 148 22 -7 26 10 4 19 -20 7 -63 -31 -127 -112 -43
-55 -125 -142 -134 -142 -1 0 -9 18 -18 41 -9 22 -21 37 -26 34 -6 -3 -10 -3
-11 2 0 4 -3 33 -5 64 l-4 57 59 65 c50 55 62 63 71 51 7 -8 17 -14 23 -14 5
0 2 9 -7 19 -19 20 -14 41 8 41 7 0 17 -10 23 -23 14 -31 62 -87 75 -87 6 0
-4 16 -21 35 -17 19 -37 48 -46 64 -14 29 -14 30 31 71 25 23 43 44 40 48 -4
3 -25 -12 -47 -34 -39 -38 -41 -38 -55 -20 -15 22 -68 153 -80 201 -7 29 -5
28 52 -24 32 -30 86 -74 119 -99z m15 -447 c-7 -9 -15 -13 -17 -11 -7 7 7 26
19 26 6 0 6 -6 -2 -15z m-30 -55 c-12 -16 -24 -30 -26 -30 -7 0 5 20 24 43 24
27 25 20 2 -13z m-140 -83 c0 -5 -7 -4 -15 3 -8 7 -15 20 -15 29 1 13 3 13 15
-3 8 -11 15 -24 15 -29z"/>
<path d="M3820 6379 c0 -5 5 -7 10 -4 6 3 10 8 10 11 0 2 -4 4 -10 4 -5 0 -10
-5 -10 -11z"/>
<path d="M2610 6996 c-31 -81 -52 -236 -51 -380 0 -82 4 -153 8 -157 5 -5 7
53 5 127 -5 145 6 244 39 357 20 68 19 105 -1 53z"/>
<path d="M5136 6988 c5 -7 31 -49 59 -93 29 -44 59 -94 68 -112 20 -37 17 -40
-64 -72 -31 -12 -66 -32 -77 -44 -33 -36 -63 -106 -64 -147 0 -36 -6 -42 -81
-102 -169 -132 -445 -425 -639 -678 -68 -89 -239 -340 -310 -458 -27 -43 -42
-60 -53 -56 -8 4 -15 12 -15 18 0 7 -15 19 -32 28 -64 31 -259 218 -228 218 6
0 -2 11 -17 24 -24 21 -26 28 -16 44 11 18 8 20 -34 26 -25 3 -52 11 -59 17
-10 9 -14 9 -14 0 0 -6 20 -16 45 -23 25 -7 45 -18 45 -25 0 -16 -26 -17 -36
-2 -3 6 -16 8 -27 5 -12 -3 -40 3 -64 14 l-43 19 22 33 c44 64 80 108 90 108
12 0 41 29 62 62 19 29 41 28 49 -3 4 -15 2 -19 -9 -15 -22 8 -16 -12 7 -25
29 -15 45 2 29 31 -11 21 -11 21 19 5 37 -19 37 -21 9 -46 -27 -21 -54 -25
-61 -6 -3 8 -10 6 -26 -8 -15 -13 -35 -19 -64 -18 -33 2 -38 0 -24 -8 10 -6
28 -9 40 -7 12 1 27 -1 33 -5 7 -4 15 2 19 16 7 22 7 22 14 -3 6 -21 8 -22 14
-7 3 9 15 17 26 17 11 0 32 11 47 24 l28 23 -46 47 c-44 44 -49 63 -13 50 23
-9 65 -49 87 -82 12 -17 18 -21 18 -11 0 8 -14 28 -30 44 -20 20 -26 31 -18
36 7 4 -5 12 -30 18 -23 7 -44 16 -47 21 -10 16 -198 13 -192 -2 2 -7 -5 -24
-17 -38 -20 -23 -19 -23 17 4 42 31 100 45 112 27 4 -7 -10 -30 -32 -55 -68
-75 -87 -100 -88 -116 -1 -18 -47 -90 -57 -90 -5 0 -8 5 -8 11 0 6 -39 68 -86
136 -47 69 -93 145 -101 169 -8 24 -19 44 -24 44 -19 0 32 -103 103 -206 100
-145 100 -146 37 -93 -47 40 -99 69 -99 56 0 -2 20 -17 45 -32 59 -38 113
-104 94 -116 -7 -4 -11 -11 -7 -14 3 -4 15 -1 25 6 15 9 25 8 49 -4 16 -8 44
-18 62 -22 17 -3 32 -11 32 -16 0 -6 4 -8 9 -4 5 3 13 0 16 -6 4 -5 13 -8 20
-5 9 3 12 -2 10 -14 -3 -14 10 -28 46 -50 27 -18 49 -37 49 -44 0 -10 145
-135 211 -181 26 -18 43 -45 20 -30 -17 10 -87 -101 -121 -191 -16 -41 -2 -27
25 26 14 28 30 50 36 50 5 0 7 5 4 10 -4 6 -1 9 5 8 6 -2 38 40 70 92 300 482
364 569 666 905 137 152 377 365 412 365 6 0 12 4 12 9 0 4 20 19 45 32 25 13
45 27 45 31 0 11 -57 -12 -71 -28 -28 -34 -37 -7 -18 59 15 54 59 99 139 141
38 21 70 42 70 49 0 18 -141 247 -152 247 -5 0 -6 -6 -2 -12z m-1446 -1112 c0
-2 -8 -10 -17 -17 -16 -13 -17 -12 -4 4 13 16 21 21 21 13z m26 -51 c18 -13
18 -14 -4 -8 -12 3 -25 9 -28 14 -8 14 10 11 32 -6z m238 -670 c-9 -14 -18
-25 -21 -25 -5 0 5 18 20 38 17 22 18 13 1 -13z"/>
<path d="M4780 6972 c0 -10 7 -28 16 -41 31 -44 0 -207 -70 -364 -14 -31 -28
-57 -31 -57 -3 0 -3 5 0 10 3 6 1 10 -4 10 -14 0 -14 -27 -1 -35 13 -8 33 27
69 116 59 147 79 282 52 353 -12 30 -31 35 -31 8z"/>
<path d="M5276 6921 c-8 -13 4 -41 17 -41 7 0 7 4 -1 12 -15 15 -16 31 0 22 7
-4 8 -3 4 4 -9 14 -13 15 -20 3z"/>
<path d="M5109 6884 c24 -31 26 -61 6 -88 -8 -11 -15 -27 -15 -35 0 -11 4 -10
15 5 13 18 14 18 15 1 0 -38 20 -4 20 35 0 41 -32 108 -52 108 -5 0 0 -12 11
-26z"/>
<path d="M4464 6829 c-3 -6 -10 -59 -15 -118 -5 -58 -11 -117 -15 -131 -5 -18
-4 -22 4 -15 6 6 16 53 22 105 20 163 20 163 35 150 22 -19 73 -150 86 -224 6
-38 9 -93 6 -122 -3 -33 -2 -52 4 -49 5 4 9 10 9 15 0 6 20 39 45 76 36 52 45
74 45 107 0 31 -3 38 -10 27 -5 -8 -10 -29 -10 -46 0 -19 -12 -48 -32 -75
l-33 -44 -7 75 c-8 88 -16 117 -59 210 -22 49 -37 70 -50 70 -10 0 -21 -5 -25
-11z"/>
<path d="M4184 6765 c26 -19 42 -19 26 0 -7 8 -20 15 -29 15 -13 -1 -13 -3 3
-15z"/>
<path d="M5732 6775 c10 -29 43 -85 50 -85 5 0 2 12 -6 28 -16 29 -49 73 -44
57z"/>
<path d="M3002 6638 c-7 -7 -12 -22 -12 -34 0 -46 54 -192 116 -319 72 -144
140 -236 228 -307 59 -47 142 -161 137 -187 -1 -7 2 -10 8 -6 6 3 11 1 11 -4
0 -6 -4 -11 -9 -11 -13 0 -108 105 -175 194 -32 42 -60 75 -63 73 -6 -6 91
-137 157 -212 27 -32 47 -62 43 -68 -4 -6 0 -8 10 -4 20 7 22 -4 5 -21 -6 -6
-9 -14 -6 -17 3 -3 22 17 43 45 20 27 40 50 43 50 4 1 18 10 31 21 40 33 15
33 -28 0 l-40 -32 -24 33 c-13 18 -33 46 -43 62 l-18 29 22 -12 c13 -7 28 -11
35 -8 7 2 -5 12 -26 22 -21 10 -44 26 -51 37 -7 10 -20 16 -27 13 -17 -7 -122
99 -172 173 -103 151 -212 438 -185 486 11 19 7 21 -10 4z"/>
<path d="M5798 6578 c113 -192 233 -440 377 -783 115 -274 165 -399 165 -414
0 -6 -11 -11 -24 -11 -44 0 -160 -41 -252 -89 -228 -120 -393 -290 -513 -529
-23 -46 -41 -88 -39 -94 2 -6 22 28 45 74 86 173 206 326 333 423 125 95 313
184 422 198 l46 6 17 -42 c20 -51 76 -147 86 -147 4 0 -15 43 -43 95 -27 52
-47 95 -43 95 21 0 75 -32 93 -55 12 -16 25 -26 28 -22 11 11 -52 68 -91 81
-45 16 -29 -17 -205 411 -46 110 -112 261 -147 335 -36 74 -74 155 -86 180
-45 97 -170 320 -179 320 -5 0 -1 -15 10 -32z"/>
<path d="M4225 6578 c4 -13 11 -27 16 -32 5 -6 9 -20 9 -33 0 -13 5 -23 10
-23 14 0 12 18 -6 67 -17 44 -41 61 -29 21z"/>
<path d="M4331 6582 c-11 -20 -15 -21 -29 -10 -14 11 -15 11 -9 -5 4 -10 7
-23 7 -28 0 -5 12 1 26 14 15 14 24 31 22 38 -3 10 -9 7 -17 -9z"/>
<path d="M4213 6516 c6 -16 4 -17 -18 -12 -14 4 -25 2 -25 -3 0 -15 44 -21 58
-7 11 10 10 15 -4 27 -16 12 -17 12 -11 -5z"/>
<path d="M4295 6510 c-8 -13 15 -13 35 0 12 8 11 10 -7 10 -12 0 -25 -4 -28
-10z"/>
<path d="M4161 6436 c-24 -37 -26 -46 -11 -46 6 0 10 6 10 14 0 8 7 17 16 20
13 5 15 1 10 -19 -4 -14 -4 -25 -1 -25 18 0 64 32 79 54 23 35 9 33 -31 -6
l-32 -31 6 36 c8 49 -17 50 -46 3z"/>
<path d="M4260 6405 c-25 -40 -107 -115 -126 -115 -8 0 -14 -4 -14 -10 0 -15
8 -12 43 12 56 38 151 148 129 148 -6 0 -20 -16 -32 -35z"/>
<path d="M5240 6377 c-108 -49 -205 -108 -300 -181 -91 -69 -200 -167 -200
-178 0 -8 92 67 150 121 71 68 265 188 380 236 63 26 95 45 75 45 -6 0 -53
-20 -105 -43z"/>
<path d="M5410 6343 c0 -36 4 -63 10 -63 13 0 13 90 0 110 -7 11 -10 -3 -10
-47z"/>
<path d="M2545 6313 c15 -206 56 -547 67 -558 6 -7 8 2 4 25 -10 56 -56 481
-55 504 0 11 13 -18 29 -66 30 -91 88 -213 96 -205 3 3 -8 33 -25 67 -17 33
-47 110 -68 171 -20 60 -40 109 -44 109 -4 0 -6 -21 -4 -47z"/>
<path d="M2874 6304 c-4 -15 -4 -58 -1 -98 11 -127 84 -311 184 -466 64 -98
61 -95 68 -88 4 3 -14 34 -39 70 -128 183 -233 488 -199 579 6 16 7 29 2 29
-5 0 -12 -12 -15 -26z"/>
<path d="M3440 6181 c0 -15 86 -121 134 -164 49 -44 37 -41 -99 23 -64 31
-115 63 -140 89 -21 22 -41 38 -44 36 -7 -8 129 -203 156 -225 46 -36 43 -21
-5 29 -45 46 -94 118 -76 110 5 -2 45 -23 89 -45 44 -23 112 -51 150 -63 39
-12 78 -24 88 -27 9 -3 17 -1 17 4 0 5 -13 12 -28 15 -38 8 -108 67 -181 155
-34 40 -61 68 -61 63z"/>
<path d="M3195 6071 c-3 -5 -1 -12 5 -16 5 -3 10 1 10 9 0 18 -6 21 -15 7z"/>
<path d="M6146 6030 c30 -54 145 -170 236 -238 31 -23 70 -58 87 -79 79 -97
143 -193 162 -243 25 -67 27 -180 4 -260 -27 -93 -52 -221 -44 -226 11 -6 16
5 24 56 4 25 20 95 36 155 34 128 36 186 11 275 -18 63 -33 88 -118 202 -45
58 -139 148 -156 148 -15 0 -140 103 -183 151 -20 22 -43 55 -52 74 -9 19 -21
35 -25 35 -5 0 3 -23 18 -50z"/>
<path d="M5951 5924 c-55 -63 -85 -119 -178 -334 -70 -162 -217 -542 -253
-653 -11 -35 -7 -69 4 -36 175 505 355 922 441 1017 26 28 42 52 37 52 -6 0
-28 -21 -51 -46z"/>
<path d="M2755 5913 c28 -167 107 -347 185 -423 79 -77 108 -65 64 28 -47 100
-64 155 -65 207 0 43 -2 47 -10 25 -14 -35 -2 -93 43 -194 21 -49 37 -94 35
-100 -7 -20 -102 89 -139 159 -41 80 -84 209 -94 284 -4 28 -11 51 -16 51 -5
0 -6 -17 -3 -37z"/>
<path d="M2686 5908 c-8 -18 -17 -49 -21 -68 -4 -19 -20 -63 -36 -97 -15 -35
-23 -63 -18 -63 13 0 45 76 73 176 24 87 25 108 2 52z"/>
<path d="M2960 5767 c0 -10 56 -118 83 -157 49 -74 171 -187 238 -220 34 -17
63 -29 66 -26 3 3 -24 19 -60 37 -75 35 -112 67 -64 55 46 -11 30 8 -22 27
-63 22 -136 102 -186 203 -31 62 -55 98 -55 81z"/>
<path d="M2679 5742 c6 -12 16 -24 22 -28 8 -4 8 -1 0 14 -6 12 -16 24 -22 28
-8 4 -8 1 0 -14z"/>
<path d="M3759 5667 c-18 -28 -43 -60 -54 -69 -11 -10 -15 -17 -8 -18 20 0
112 124 100 136 -2 2 -19 -20 -38 -49z"/>
<path d="M3220 5678 c0 -52 48 -171 67 -164 7 3 13 1 13 -3 0 -5 18 -32 40
-60 22 -28 37 -51 33 -51 -4 0 16 -16 46 -35 29 -19 55 -35 58 -35 3 0 -26 30
-63 66 -38 36 -60 62 -49 58 11 -4 29 -7 40 -8 11 -1 58 -21 104 -44 46 -23
86 -41 88 -39 8 8 -10 33 -45 62 -30 26 -34 27 -23 7 13 -25 0 -30 -19 -7 -7
9 -18 14 -24 12 -6 -3 -26 4 -43 15 -19 11 -33 15 -33 9 0 -18 -71 23 -107 61
-28 29 -80 138 -66 138 3 0 25 -16 49 -35 23 -19 47 -35 54 -35 6 0 -13 19
-42 43 -69 56 -78 61 -78 45z"/>
<path d="M3902 5628 c12 -35 23 -57 26 -50 5 15 -29 112 -39 112 -4 0 2 -28
13 -62z"/>
<path d="M4080 5591 c-6 -12 -7 -21 -1 -21 10 0 24 30 17 37 -2 3 -9 -5 -16
-16z"/>
<path d="M3940 5556 c9 -8 134 -46 138 -41 6 6 -59 31 -103 39 -22 4 -38 5
-35 2z"/>
<path d="M3520 5525 c0 -12 45 -95 51 -95 10 0 -34 99 -43 100 -5 0 -8 -2 -8
-5z"/>
<path d="M6890 5505 c-7 -8 -10 -21 -7 -28 6 -16 336 -232 343 -225 6 7 -40
40 -198 142 -76 48 -138 90 -138 93 0 3 8 12 18 19 9 7 12 14 6 14 -6 0 -17
-7 -24 -15z"/>
<path d="M6700 5494 c1 -5 7 -20 15 -34 8 -14 14 -42 15 -62 0 -21 5 -38 11
-38 12 0 7 68 -7 104 -7 17 1 15 52 -13 66 -37 148 -97 184 -136 24 -25 50
-33 50 -15 0 15 -129 118 -196 156 -62 34 -124 54 -124 38z"/>
<path d="M4094 5235 c12 -45 47 -196 67 -287 12 -54 25 -98 29 -98 6 0 -51
282 -66 320 -3 9 -2 11 4 5 7 -9 35 -92 48 -143 2 -9 19 -64 39 -121 19 -57
37 -119 41 -137 3 -19 10 -37 15 -40 13 -8 11 7 -10 77 -11 35 -26 88 -35 117
l-15 53 81 -63 c45 -35 127 -106 182 -159 214 -202 241 -227 245 -223 3 2 -14
24 -37 47 -23 24 -42 47 -42 52 -1 20 -190 248 -190 229 0 -5 34 -49 75 -99
41 -49 75 -94 75 -98 0 -4 -37 28 -82 71 -91 87 -149 138 -254 223 l-69 56
-30 98 c-16 54 -28 106 -28 116 1 11 -2 19 -8 19 -5 0 -9 -8 -9 -17 0 -15 -2
-14 -16 3 -15 19 -15 19 -10 -1z"/>
<path d="M6796 5195 c-3 -9 -6 -22 -6 -28 1 -17 39 -61 47 -53 3 3 -1 14 -10
23 -59 67 37 67 168 1 71 -36 96 -55 198 -156 43 -43 77 -70 77 -61 0 21 -118
133 -203 193 -76 54 -151 86 -218 93 -37 3 -48 1 -53 -12z"/>
<path d="M7310 5150 c-11 -27 -11 -33 6 -46 16 -12 337 -174 369 -185 13 -5
149 -83 190 -109 17 -11 44 -27 60 -36 17 -9 38 -24 48 -32 10 -9 64 -39 120
-67 l102 -51 72 -108 c69 -103 76 -119 152 -349 43 -133 100 -323 127 -422 26
-99 51 -184 57 -190 6 -6 6 3 2 25 -14 66 -127 465 -165 584 -21 65 -35 115
-31 110 14 -18 133 -276 137 -301 3 -14 11 -35 18 -46 19 -29 74 -205 92 -292
9 -40 17 -156 21 -270 5 -175 3 -217 -17 -340 -19 -125 -53 -276 -66 -296 -3
-5 -19 1 -37 11 -39 24 -87 25 -158 3 -30 -9 -74 -16 -99 -14 -116 7 -304 -40
-444 -111 -119 -60 -338 -204 -459 -302 -307 -249 -485 -415 -594 -553 -36
-46 -68 -83 -73 -83 -23 0 -240 544 -240 604 0 14 -4 26 -10 26 -5 0 -10 -9
-10 -20 0 -49 119 -370 186 -502 18 -35 27 -72 30 -115 3 -61 1 -66 -48 -145
-109 -179 -203 -324 -268 -416 -60 -85 -119 -201 -166 -323 -26 -68 -56 -136
-66 -150 -18 -24 -19 -31 -7 -62 10 -30 10 -41 -6 -78 -9 -24 -19 -50 -22 -57
-3 -6 -1 -12 4 -12 5 0 17 25 28 56 15 45 25 59 47 66 15 6 25 14 22 19 -3 5
2 6 10 3 9 -3 16 -2 16 2 1 5 15 25 32 44 50 57 25 11 -47 -85 -113 -151 -193
-305 -246 -469 -22 -69 -22 -66 -9 -66 6 0 10 7 10 15 0 25 89 244 128 315 81
148 184 285 354 470 161 176 208 223 273 275 59 47 165 135 175 145 3 3 51 45
107 93 56 48 123 108 150 132 57 53 104 78 130 68 10 -3 39 -21 64 -40 73 -52
112 -64 228 -69 93 -5 103 -3 83 9 -13 7 -51 14 -85 15 -73 2 -160 26 -200 54
-16 11 -45 28 -64 38 l-35 17 103 65 c187 116 206 124 294 131 44 4 89 8 100
11 43 8 102 17 145 21 25 3 63 7 85 11 36 5 38 4 22 -8 -16 -12 -16 -16 -5
-25 7 -6 27 -14 43 -18 l30 -6 -25 14 c-24 15 -23 15 30 22 30 4 150 7 265 8
l210 1 87 -36 c47 -19 106 -49 130 -65 77 -52 101 -58 179 -44 38 7 71 16 73
20 3 3 -27 5 -64 3 -67 -4 -72 -3 -147 41 -124 73 -124 73 -54 69 43 -3 61 -8
61 -18 0 -20 30 -32 70 -28 134 13 239 15 257 5 11 -6 40 -13 64 -16 24 -3 51
-8 60 -10 41 -13 113 -220 113 -325 -1 -83 -30 -229 -60 -302 -13 -31 -21 -65
-18 -75 4 -11 3 -14 -3 -7 -10 14 -76 -59 -105 -115 -15 -30 -17 -49 -12 -122
4 -56 3 -93 -5 -107 -26 -48 34 -102 82 -72 19 11 20 10 13 -30 -9 -57 -90
-202 -125 -224 -7 -5 -31 -24 -52 -43 -39 -35 -49 -65 -27 -79 7 -5 8 -3 4 5
-9 14 21 51 41 51 23 0 111 90 142 144 43 77 51 108 63 253 1 7 6 11 11 10 15
-3 73 98 108 188 17 44 40 97 50 118 10 20 16 37 12 37 -3 0 1 8 10 18 33 37
127 230 133 274 5 37 10 45 23 41 12 -5 11 0 -5 18 -12 13 -25 35 -29 49 -9
33 -56 130 -62 130 -3 0 -3 -6 0 -12 3 -7 15 -38 27 -68 l22 -55 -29 25 c-15
14 -32 28 -38 33 -6 4 -2 5 8 1 15 -6 16 -3 6 22 -19 52 -59 81 -72 54 -3 -6
-4 -5 -3 2 1 7 -10 23 -25 36 -27 22 -29 22 -54 6 -14 -9 -25 -23 -25 -30 0
-25 -18 -15 -25 14 -3 15 -20 53 -36 85 -23 45 -26 59 -15 63 17 7 71 82 78
110 8 31 -26 196 -46 225 -9 13 -36 40 -60 59 -24 19 -67 66 -97 104 -34 43
-80 86 -124 116 -39 26 -83 66 -99 89 -29 41 -91 102 -135 133 -22 16 -24 25
-28 120 -7 189 -47 450 -83 534 -7 19 -6 21 11 17 14 -4 10 4 -16 30 -33 33
-35 39 -35 99 0 34 5 92 10 128 6 41 6 68 0 74 -7 7 -10 -3 -11 -25 -1 -26 -3
-28 -6 -9 -39 238 -45 265 -103 421 -55 146 -157 369 -209 453 -11 17 -35 72
-55 121 -37 93 -116 232 -116 204 0 -8 4 -19 9 -25 6 -5 24 -40 41 -79 17 -38
27 -65 22 -60 -4 6 -33 41 -62 79 -62 79 -142 146 -173 146 -18 -1 -17 -3 9
-14 35 -15 107 -76 100 -84 -11 -10 -145 79 -140 93 4 9 0 12 -13 9 -11 -3
-47 15 -93 47 -106 73 -157 101 -478 255 -119 57 -122 60 -116 87 8 36 0 34
-16 -3z m1439 -2030 c27 -104 49 -275 58 -434 l6 -119 -61 49 c-33 27 -72 57
-86 66 -21 15 -23 22 -16 47 4 17 12 61 16 98 5 48 9 62 15 48 4 -11 8 -15 9
-10 0 6 3 62 6 125 3 63 7 124 9 135 2 11 4 40 5 65 1 58 11 40 39 -70z m-445
-419 c6 -10 -49 -19 -149 -26 -33 -2 -75 -9 -94 -14 -55 -17 -47 -5 9 14 43
14 117 26 212 34 9 0 19 -3 22 -8z m436 -165 c-7 -7 -13 -7 -20 0 -6 6 -3 10
10 10 13 0 16 -4 10 -10z m-205 -14 c-3 -3 -11 0 -18 7 -9 10 -8 11 6 5 10 -3
15 -9 12 -12z m240 -22 c1 -10 -2 -17 -6 -14 -4 2 -7 13 -6 24 2 23 10 17 12
-10z m-15 -46 c0 -8 -19 -13 -24 -6 -3 5 1 9 9 9 8 0 15 -2 15 -3z m-35 -13
c3 -5 2 -12 -3 -15 -5 -3 -9 1 -9 9 0 17 3 19 12 6z m-1380 -213 c-88 -73 -91
-77 -75 -89 12 -9 11 -10 -7 -6 -17 4 -23 1 -23 -11 0 -15 -2 -15 -10 -2 -9
14 -15 6 -10 -15 1 -5 -2 -7 -6 -3 -4 4 -32 -13 -62 -39 -30 -26 -49 -38 -42
-27 16 24 251 223 265 224 5 0 -8 -15 -30 -32z m1740 -28 c10 -11 16 -20 13
-20 -3 0 -13 9 -23 20 -10 11 -16 20 -13 20 3 0 13 -9 23 -20z m285 -180 c6
-11 8 -20 6 -20 -3 0 -10 9 -16 20 -6 11 -8 20 -6 20 3 0 10 -9 16 -20z
m-2475 -207 c-25 -26 -55 -62 -68 -80 -12 -18 -26 -33 -31 -33 -4 0 4 17 20
38 32 43 109 122 119 122 3 0 -14 -21 -40 -47z m1548 0 c-7 -2 -19 -2 -25 0
-7 3 -2 5 12 5 14 0 19 -2 13 -5z m959 -25 c-7 -7 -12 -8 -12 -2 0 14 12 26
19 19 2 -3 -1 -11 -7 -17z m-2625 -123 c-7 -13 -14 -20 -15 -14 -2 5 2 16 8
24 18 21 20 18 7 -10z m2698 -125 c3 -6 -1 -7 -9 -4 -18 7 -21 14 -7 14 6 0
13 -4 16 -10z m35 -68 c-22 -8 -25 -6 -25 21 l-1 28 18 -23 c9 -13 13 -24 8
-26z m45 8 c10 -11 16 -20 13 -20 -3 0 -13 9 -23 20 -10 11 -16 20 -13 20 3 0
13 -9 23 -20z m-18 -46 c-9 -9 -28 6 -21 18 4 6 10 6 17 -1 6 -6 8 -13 4 -17z
m93 -108 c0 -3 -4 -8 -10 -11 -5 -3 -10 -1 -10 4 0 6 5 11 10 11 6 0 10 -2 10
-4z m26 -61 c-4 -18 -18 -45 -31 -61 -14 -16 -25 -31 -25 -34 0 -3 -9 -11 -20
-18 -19 -12 -20 -11 -8 8 7 11 16 20 21 20 4 0 5 5 1 12 -5 7 -3 8 6 3 10 -6
12 -4 7 8 -3 9 0 20 7 24 7 5 19 31 26 58 15 53 27 38 16 -20z m-52 26 c3 -5
-2 -15 -12 -22 -15 -12 -16 -12 -5 2 7 9 10 19 6 22 -3 4 -4 7 0 7 3 0 8 -4
11 -9z m-167 -33 c-3 -8 -6 -5 -6 6 -1 11 2 17 5 13 3 -3 4 -12 1 -19z m50
-25 c-3 -10 -5 -4 -5 12 0 17 2 24 5 18 2 -7 2 -21 0 -30z m73 -13 c-12 -16
-24 -30 -26 -30 -3 0 4 14 16 30 12 17 24 30 26 30 3 0 -4 -13 -16 -30z m-103
-32 c-3 -8 -6 -5 -6 6 -1 11 2 17 5 13 3 -3 4 -12 1 -19z m-2702 -18 c-3 -5
-12 -10 -18 -10 -7 0 -6 4 3 10 19 12 23 12 15 0z m35 7 c0 -2 -10 -12 -22
-23 l-23 -19 19 23 c18 21 26 27 26 19z m2730 -12 c-7 -8 -17 -12 -23 -8 -6 4
-3 9 9 14 27 11 28 11 14 -6z m-48 -30 c6 -31 -9 -43 -28 -21 -8 9 -9 11 -2 6
21 -17 27 -11 18 20 -5 17 -5 28 -1 25 5 -2 11 -16 13 -30z m-2739 0 c4 -8 3
-16 -1 -19 -4 -3 -9 4 -9 15 -2 23 3 25 10 4z m-279 -3 c3 -5 -1 -9 -9 -9 -8
0 -12 4 -9 9 3 4 7 8 9 8 2 0 6 -4 9 -8z m3109 -10 c3 -4 -6 -21 -19 -37 -18
-21 -23 -24 -18 -10 4 14 -4 9 -26 -15 -32 -36 -24 -20 19 38 25 32 36 38 44
24z m-75 -112 c-22 -30 -35 -41 -22 -17 9 16 36 47 41 47 2 0 -6 -13 -19 -30z
m-34 -14 c-3 -9 -10 -13 -15 -10 -5 3 -3 11 4 19 15 16 19 13 11 -9z m-38 -91
c-20 -25 -36 -43 -36 -39 0 9 64 93 68 89 2 -2 -13 -24 -32 -50z m-2877 -2
c-72 -77 -152 -158 -142 -143 5 8 28 39 51 68 22 28 43 61 47 71 5 17 41 38
70 40 5 1 -7 -16 -26 -36z m2941 -13 c-6 -11 -13 -20 -16 -20 -2 0 0 9 6 20 6
11 13 20 16 20 2 0 0 -9 -6 -20z m-220 -14 c0 -2 -8 -10 -17 -17 -16 -13 -17
-12 -4 4 13 16 21 21 21 13z m115 -34 c-3 -3 -11 0 -18 7 -9 10 -8 11 6 5 10
-3 15 -9 12 -12z m85 -3 c0 -6 -4 -7 -10 -4 -5 3 -10 1 -10 -6 0 -7 -2 -10 -5
-7 -9 8 6 38 16 32 5 -3 9 -10 9 -15z m-119 -46 c-5 -10 -17 -27 -26 -38 -16
-19 -16 -19 -4 5 13 27 29 50 36 50 2 0 -1 -8 -6 -17z m14 -107 c0 -13 -3 -22
-7 -19 -5 2 -8 13 -8 24 0 10 3 19 8 19 4 0 7 -11 7 -24z m-48 -68 c-3 -8 -6
-5 -6 6 -1 11 2 17 5 13 3 -3 4 -12 1 -19z"/>
<path d="M9536 1104 c-5 -14 -4 -15 9 -4 17 14 19 20 6 20 -5 0 -12 -7 -15
-16z"/>
<path d="M3938 5083 c-20 -23 -53 -90 -61 -124 -8 -30 12 -53 56 -63 16 -4 43
-22 60 -41 24 -25 244 -155 264 -155 2 0 3 6 3 14 0 7 -51 43 -112 80 -62 36
-106 66 -98 66 8 -1 26 -7 40 -15 14 -8 34 -14 45 -14 24 0 -42 31 -125 58
-78 26 -120 49 -120 66 0 20 39 95 63 123 11 12 16 22 10 22 -5 0 -17 -8 -25
-17z"/>
<path d="M6636 4938 c-40 -69 -256 -341 -311 -393 -44 -41 -225 -245 -218
-245 20 0 279 285 428 469 63 79 135 183 135 196 0 15 -18 1 -34 -27z"/>
<path d="M5856 4823 c-71 -90 -188 -263 -178 -263 5 0 26 26 48 58 21 31 71
101 112 156 79 107 93 145 18 49z"/>
<path d="M2322 4828 c-7 -7 -12 -19 -12 -28 0 -9 -22 -86 -49 -171 -87 -271
-171 -553 -174 -585 -4 -36 -37 -93 -85 -146 -26 -29 -42 -38 -67 -38 l-33 0
-5 103 c-2 56 -17 181 -31 277 -15 96 -31 219 -37 272 -20 194 -83 318 -162
318 -30 0 -56 -37 -58 -82 -1 -18 8 -121 20 -228 42 -381 49 -476 44 -567 -5
-86 -7 -92 -29 -97 -26 -7 -93 -86 -113 -135 -8 -17 -18 -31 -23 -31 -5 0 -4
9 2 19 16 30 12 32 -13 8 -13 -12 -22 -25 -20 -29 4 -8 -77 -152 -88 -156 -5
-2 -9 -11 -9 -20 0 -9 -9 -32 -21 -51 -11 -18 -18 -35 -15 -38 3 -3 17 18 33
46 30 55 50 66 143 77 l45 6 19 -51 c24 -67 67 -125 120 -163 42 -29 43 -31
34 -67 -16 -60 -23 -514 -8 -541 15 -28 1 -40 -47 -40 -18 0 -33 -5 -33 -11 0
-6 8 -8 18 -5 9 3 35 8 57 12 40 7 65 20 65 34 0 4 -11 5 -24 3 -22 -5 -25 -1
-32 43 -14 93 8 509 28 529 2 2 32 -5 67 -15 34 -11 80 -20 102 -20 42 0 45
-4 29 -46 -17 -43 -3 -40 20 6 14 28 32 46 57 56 43 19 47 16 22 -16 -15 -20
-21 -22 -28 -11 -11 18 -26 -177 -26 -359 0 -125 2 -137 23 -167 13 -18 31
-33 40 -33 25 -1 -33 -50 -115 -98 -72 -43 -160 -75 -230 -87 -24 -4 -43 -11
-43 -16 0 -14 21 -11 114 16 152 44 212 82 359 224 77 76 89 84 106 74 22 -14
23 -2 3 35 -34 60 -82 245 -82 314 0 43 2 47 28 51 20 4 18 4 -8 3 -32 -1 -35
-4 -38 -36 -6 -58 32 -210 83 -332 5 -12 3 -18 -7 -18 -8 0 -35 -20 -59 -46
-57 -59 -93 -78 -119 -64 -35 19 -43 80 -34 275 4 99 8 192 8 208 1 15 6 27
13 27 7 0 24 20 38 44 19 33 38 49 75 65 28 12 50 26 50 32 0 6 -3 9 -7 7 -16
-7 -90 -42 -138 -65 -27 -13 -51 -19 -53 -15 -1 5 9 40 23 77 27 73 30 85 16
85 -5 0 -12 -12 -15 -26 -4 -14 -15 -45 -26 -68 -10 -22 -20 -50 -22 -61 -3
-18 -11 -20 -62 -18 -46 2 -135 24 -155 39 -2 2 4 15 13 29 20 30 4 34 -17 4
-14 -19 -17 -20 -45 -5 -37 19 -76 65 -108 127 -53 106 -20 116 163 49 127
-47 203 -66 203 -51 0 4 -25 13 -56 20 -50 12 -160 52 -221 83 -13 6 -43 8
-72 5 l-50 -6 -6 33 c-4 18 -5 40 -3 49 2 9 -6 22 -16 30 -18 13 -18 15 10 66
33 62 80 105 103 95 9 -3 25 -9 36 -12 19 -4 19 -3 -2 17 -19 18 -23 32 -23
86 0 68 7 79 28 44 7 -12 16 -19 18 -16 3 3 -2 18 -12 33 -14 21 -18 45 -16
111 1 51 -2 82 -7 78 -11 -6 -17 24 -25 120 -3 33 -8 89 -12 125 -3 36 -12
112 -20 169 -18 133 -18 171 2 199 48 69 137 -36 168 -200 8 -40 17 -109 21
-153 3 -44 17 -161 32 -260 16 -117 23 -204 20 -249 -4 -65 -3 -71 22 -94 14
-13 35 -30 46 -38 26 -17 104 -34 110 -24 2 4 -13 10 -34 13 -21 2 -51 13 -67
23 l-28 19 52 3 c29 2 52 7 52 13 0 5 -9 9 -20 9 -16 0 -11 11 31 66 56 74
103 158 75 135 -21 -18 -21 -17 18 107 37 114 81 256 153 497 24 82 47 153 49
157 12 18 45 -16 75 -77 31 -63 32 -69 26 -151 -6 -84 -8 -88 -64 -173 -65
-98 -119 -198 -111 -207 3 -3 19 19 35 48 16 29 56 95 88 147 l59 95 4 92 c4
82 2 98 -21 147 -38 84 -76 114 -105 85z m-796 -1163 c5 -12 10 -13 20 -4 12
9 14 3 14 -40 0 -47 -2 -51 -27 -56 -16 -4 -46 -10 -68 -15 -21 -5 -41 -7 -43
-5 -3 2 12 33 32 69 36 64 61 82 72 51z"/>
<path d="M5984 4718 c-59 -61 -97 -114 -92 -128 2 -5 36 29 76 76 83 96 94
132 16 52z"/>
<path d="M7131 4623 c-38 -19 -158 -129 -149 -138 3 -3 31 19 62 49 64 61 117
90 146 81 24 -7 27 10 4 19 -22 8 -24 8 -63 -11z"/>
<path d="M4660 4620 c0 -5 20 -23 45 -40 25 -17 45 -27 45 -22 0 4 -20 22 -45
40 -25 17 -45 27 -45 22z"/>
<path d="M4200 4611 c0 -14 84 -87 159 -137 60 -40 69 -49 59 -62 -11 -13 -10
-14 10 -8 26 9 26 9 6 -39 -26 -62 -22 -132 11 -195 15 -30 36 -66 46 -78 17
-23 17 -25 1 -50 -21 -34 -202 -215 -350 -351 l-113 -103 -95 -192 -95 -191 2
-250 c1 -235 0 -253 -20 -297 -52 -117 -60 -138 -52 -138 4 0 24 35 44 78 31
67 36 73 36 45 1 -17 -3 -42 -8 -55 -17 -46 -21 -78 -11 -78 5 0 10 9 10 19 0
11 5 23 11 27 9 5 11 -11 7 -59 -3 -37 -2 -65 2 -62 5 3 13 -9 19 -27 6 -17
13 -29 14 -27 2 2 -1 66 -6 141 -9 117 -8 150 6 225 20 103 20 103 7 103 -5 0
-10 -6 -10 -14 0 -8 -5 -18 -11 -22 -8 -4 -9 53 -6 202 l6 209 74 162 c69 150
117 230 130 217 3 -3 12 5 21 18 8 13 75 80 148 148 73 69 123 112 111 95 -20
-29 -154 -164 -218 -220 -21 -18 -23 -23 -9 -16 44 21 190 165 261 255 20 26
44 46 54 46 20 0 26 16 9 22 -6 2 5 24 23 50 l33 46 68 -75 c37 -42 79 -93 93
-115 14 -21 28 -36 31 -33 7 7 -42 79 -98 145 -64 75 -151 207 -167 253 -11
32 -11 48 1 98 17 73 38 102 31 43 -5 -37 -5 -38 7 -13 8 15 19 24 27 21 8 -3
11 0 7 7 -4 6 -1 11 8 11 9 0 16 4 16 9 0 17 -28 31 -57 29 -33 -2 -192 101
-243 158 -30 35 -40 41 -40 25z m305 -201 c3 -5 2 -10 -4 -10 -5 0 -13 5 -16
10 -3 6 -2 10 4 10 5 0 13 -4 16 -10z"/>
<path d="M5895 4560 c-8 -13 15 -13 35 0 12 8 11 10 -7 10 -12 0 -25 -4 -28
-10z"/>
<path d="M7465 4512 c-37 -26 -71 -54 -73 -62 -3 -8 13 0 34 16 21 17 59 42
82 56 24 14 40 28 35 31 -5 3 -40 -16 -78 -41z"/>
<path d="M6159 4500 c-65 -66 -175 -107 -514 -195 -256 -66 -412 -82 -617 -61
l-77 8 -32 56 c-24 44 -101 160 -126 191 -1 2 -6 2 -9 -2 -3 -3 12 -29 33 -59
51 -69 116 -178 111 -184 -3 -2 -56 0 -119 4 -63 5 -116 8 -117 6 -13 -9 54
-27 112 -30 131 -6 310 -15 379 -20 120 -9 283 20 602 106 211 56 380 135 419
195 34 52 14 45 -45 -15z"/>
<path d="M6396 4499 c-14 -11 -33 -34 -41 -49 -23 -44 -45 -164 -44 -233 1
-61 2 -60 15 35 23 170 40 214 97 248 19 12 25 20 16 20 -9 0 -28 -9 -43 -21z"/>
<path d="M5903 4441 c-35 -14 -63 -30 -63 -34 0 -10 27 -2 95 27 71 32 42 37
-32 7z"/>
<path d="M4550 4432 c0 -17 33 -82 41 -82 5 0 0 18 -10 40 -20 44 -31 59 -31
42z"/>
<path d="M7362 4315 c-29 -20 -68 -53 -88 -73 -40 -43 -128 -171 -171 -252
-210 -385 -300 -599 -322 -765 -6 -38 -12 -83 -16 -100 -3 -18 7 -4 25 35 17
36 48 82 68 103 20 20 31 37 25 37 -6 0 -27 -18 -47 -40 l-36 -40 0 36 c0 123
274 703 433 918 44 59 104 113 183 163 11 6 14 12 9 12 -6 1 -34 -15 -63 -34z"/>
<path d="M8210 4277 c0 -4 11 -40 25 -81 89 -265 135 -521 154 -866 15 -256
30 -447 38 -466 11 -29 38 -11 41 30 2 25 0 36 -7 31 -6 -3 -12 -18 -12 -33
-3 -57 -18 72 -23 200 -19 415 -51 683 -108 888 -43 160 -108 337 -108 297z"/>
<path d="M2255 4148 c-8 -29 -24 -97 -35 -151 -16 -82 -18 -103 -7 -128 11
-29 12 -27 14 38 1 37 14 119 30 181 16 61 25 112 21 112 -4 0 -14 -24 -23
-52z"/>
<path d="M5054 4005 c2 -22 18 -105 35 -185 38 -183 72 -399 111 -705 16 -132
30 -243 30 -248 0 -4 4 -6 8 -3 12 7 -48 478 -99 776 -39 235 -99 489 -85 365z"/>
<path d="M4913 3968 c-16 -20 -27 -98 -14 -98 6 0 11 11 11 24 0 14 5 37 10
52 12 30 8 41 -7 22z"/>
<path d="M7781 3959 c-86 -34 -239 -147 -349 -258 -180 -181 -385 -418 -375
-433 3 -7 1 -8 -5 -4 -7 4 -42 -35 -91 -100 -82 -110 -139 -204 -124 -204 5 0
23 27 42 61 21 39 36 57 41 49 5 -8 17 7 32 41 27 58 115 151 160 170 47 19
62 6 55 -50 -3 -26 -15 -73 -26 -104 -11 -32 -16 -57 -11 -57 5 0 18 28 28 63
33 106 35 125 18 152 -19 29 -30 30 -70 10 -16 -9 -30 -14 -31 -13 -9 10 357
406 455 493 118 104 271 186 320 170 12 -4 28 -22 37 -41 19 -38 38 -46 28
-11 -9 31 -61 77 -88 76 -12 0 -33 -5 -46 -10z"/>
<path d="M1690 3895 c0 -14 6 -25 14 -25 9 0 12 8 8 25 -2 14 -8 25 -13 25 -5
0 -9 -11 -9 -25z"/>
<path d="M4881 3815 c-1 -11 12 -84 29 -163 26 -129 47 -264 65 -422 4 -30 10
-142 13 -249 6 -158 4 -197 -7 -208 -11 -12 -16 -12 -30 2 -23 20 -59 19 -97
-4 -30 -18 -31 -18 -52 4 -12 13 -22 27 -22 33 0 16 -29 35 -81 53 -106 35
-249 -6 -249 -71 0 -30 30 -60 60 -60 49 -1 44 -17 -48 -154 -56 -83 -92 -146
-92 -162 0 -75 59 -86 155 -27 33 20 97 65 141 99 81 62 94 67 94 34 0 -23 46
-43 69 -31 36 20 101 101 101 126 0 32 27 75 48 75 13 0 14 -17 8 -132 -4 -73
-11 -155 -16 -183 -8 -49 -6 -64 6 -52 7 7 19 117 29 260 6 85 9 97 25 97 11
0 21 -3 23 -7 5 -9 14 -128 22 -288 3 -60 8 -148 11 -195 16 -262 2 -1005 -26
-1280 -12 -122 -13 -240 -1 -240 5 0 10 44 10 98 0 53 5 143 10 199 36 365 32
1447 -6 1662 l-6 33 34 -8 c55 -13 98 -6 160 28 55 29 60 30 77 14 27 -24 83
-20 126 9 20 14 41 25 45 25 20 0 61 43 61 64 0 49 -59 62 -118 26 l-33 -20
-26 20 c-14 11 -31 20 -38 20 -18 0 -103 -39 -149 -67 l-38 -25 -23 22 c-18
17 -33 21 -59 18 -20 -2 -36 0 -36 4 0 4 -8 8 -18 8 -17 0 -20 14 -26 168 -11
265 -25 393 -77 664 -30 159 -47 224 -48 183z m156 -1107 c-3 -7 -5 -2 -5 12
0 14 2 19 5 13 2 -7 2 -19 0 -25z m-350 -37 c11 -17 7 -25 -38 -62 -27 -23
-52 -39 -54 -37 -3 3 11 26 30 51 19 25 35 51 35 56 0 17 14 13 27 -8z"/>
<path d="M1817 3773 c-11 -10 -8 -33 4 -33 5 0 7 5 4 10 -11 18 18 11 115 -28
52 -21 116 -46 141 -56 26 -9 55 -26 65 -37 17 -19 17 -23 -4 -108 -23 -92
-28 -156 -13 -165 4 -3 11 24 15 59 4 36 10 75 15 88 4 12 11 41 15 64 10 66
-19 89 -195 157 -156 60 -152 59 -162 49z"/>
<path d="M2198 3753 c-22 -26 -50 -84 -44 -91 3 -3 14 2 24 11 24 22 102 57
128 57 11 0 38 -15 59 -33 l38 -33 -59 -75 c-117 -146 -144 -182 -144 -193 1
-6 14 5 30 24 25 28 30 31 30 15 0 -17 2 -17 10 -5 5 8 10 25 10 37 0 12 32
60 71 108 l70 86 -26 35 c-15 20 -42 42 -60 51 -35 16 -45 15 -138 -26 -5 -2
-1 8 8 23 20 30 16 35 -7 9z"/>
<path d="M8175 3534 c7 -42 24 -79 31 -71 3 2 0 25 -7 51 -15 58 -35 75 -24
20z"/>
<path d="M1239 3387 c-41 -31 -68 -143 -83 -347 -27 -355 -31 -487 -14 -512 6
-10 8 -10 8 1 0 10 12 4 33 -16 81 -78 309 -198 507 -267 117 -41 256 -77 298
-75 15 0 -13 9 -63 20 -231 47 -551 188 -706 311 -27 21 -49 45 -49 52 0 8 -6
16 -13 19 -16 6 -15 63 13 414 25 307 35 356 84 395 24 20 10 24 -15 5z"/>
<path d="M1435 3380 c-3 -5 -1 -10 4 -10 6 0 11 5 11 10 0 6 -2 10 -4 10 -3 0
-8 -4 -11 -10z"/>
<path d="M2282 3117 c0 -135 12 -219 37 -265 20 -37 23 -20 6 29 -9 24 -19 94
-22 154 -10 195 -21 239 -21 82z"/>
<path d="M3957 3048 c-4 -31 6 -184 18 -253 11 -65 66 -700 80 -922 4 -57 8
-115 10 -130 1 -16 6 -64 9 -108 9 -100 32 -235 53 -300 18 -60 60 -135 74
-135 6 0 1 15 -10 34 -65 105 -92 268 -126 771 -6 92 -9 126 -30 365 -9 96
-18 186 -20 200 -10 50 -45 406 -45 453 0 34 3 46 12 41 7 -4 8 -3 4 4 -13 21
-24 13 -29 -20z"/>
<path d="M2367 2947 c-8 -21 17 -87 33 -87 7 0 7 7 -1 23 -7 12 -15 36 -19 52
-5 24 -7 27 -13 12z"/>
<path d="M6019 2913 c-14 -10 -36 -29 -50 -42 -23 -22 -28 -23 -126 -17 -86 5
-104 3 -118 -10 -9 -9 -14 -22 -11 -29 3 -8 -2 -16 -11 -19 -25 -10 -34 4 -17
29 18 27 5 41 -25 26 -39 -22 -36 -71 6 -71 13 0 21 -4 18 -10 -3 -5 0 -10 7
-10 7 0 70 -3 139 -6 89 -5 132 -3 148 5 19 11 25 9 46 -13 13 -14 29 -26 35
-26 14 0 50 37 50 52 0 9 3 9 12 0 14 -14 42 -16 34 -3 -3 5 5 12 19 15 14 4
25 11 25 16 0 14 -18 12 -23 -2 -2 -7 -7 -10 -11 -6 -4 3 -2 16 4 28 10 18 14
20 21 9 6 -9 7 -3 3 17 -4 19 -1 34 5 38 18 11 13 26 -9 26 -13 0 -26 -12 -37
-35 -15 -31 -39 -41 -27 -11 7 18 -26 54 -56 61 -16 3 -35 -1 -51 -12z"/>
<path d="M3779 2873 c-12 -31 -45 -170 -52 -223 -3 -19 -12 -71 -20 -115 -9
-44 -25 -145 -38 -225 -26 -172 -31 -185 -52 -144 -21 40 -64 83 -93 94 -13 5
-24 16 -24 24 0 27 62 132 121 204 69 84 65 95 -8 20 -55 -58 -112 -137 -132
-186 -9 -21 -20 -32 -34 -32 -57 0 -153 -100 -284 -295 -58 -87 -163 -294
-163 -321 0 -8 -6 -14 -14 -14 -11 0 -14 11 -10 50 3 30 0 50 -6 50 -6 0 -10
-44 -10 -117 0 -116 -10 -187 -49 -348 -99 -414 -14 -692 318 -1037 46 -49 90
-88 97 -88 19 0 24 14 12 30 -8 12 -9 12 -4 -3 9 -28 -51 22 -111 91 -191 223
-290 399 -320 572 -19 108 -12 270 16 400 42 185 51 243 51 312 l0 71 73 -7
c93 -9 180 -29 237 -55 25 -11 59 -21 77 -21 18 0 42 -4 55 -9 13 -5 44 -16
69 -25 44 -16 48 -20 89 -108 24 -50 46 -86 48 -80 2 7 -8 37 -22 67 -33 74
-17 70 23 -5 18 -33 38 -63 45 -67 22 -14 33 -43 70 -206 41 -176 51 -203 76
-210 20 -5 32 -41 84 -250 35 -137 51 -167 91 -167 18 0 25 -5 25 -19 0 -23
-64 -238 -113 -379 -37 -104 -35 -146 2 -48 20 54 85 267 117 384 9 34 20 62
24 62 4 0 10 27 13 60 3 34 14 75 26 96 24 39 25 44 12 44 -5 0 -17 -17 -27
-38 -22 -46 -31 -26 -14 33 14 49 9 107 -20 235 -34 155 -59 294 -65 375 -4
44 -10 115 -14 158 -5 60 -4 76 6 72 41 -17 44 -14 15 12 -19 16 -33 35 -32
43 6 39 -1 81 -11 74 -6 -4 -9 -19 -5 -38 5 -28 4 -29 -9 -12 -7 10 -19 16
-26 14 -7 -2 -2 -15 15 -35 25 -30 26 -35 26 -167 0 -78 -4 -136 -9 -136 -6 0
-9 19 -8 43 1 27 -2 41 -9 40 -7 -1 -11 3 -10 10 0 7 -9 44 -21 82 -12 39 -41
131 -63 205 -23 74 -66 188 -97 252 -54 113 -56 118 -47 167 l9 51 102 -137
c56 -76 125 -172 154 -213 78 -112 101 -142 106 -137 6 6 -103 165 -217 317
-138 184 -143 193 -137 242 30 229 81 534 102 613 17 67 25 80 25 42 0 -15 5
-27 11 -27 6 0 9 12 7 27 -4 39 -35 43 -49 6z m-212 -669 c32 -34 80 -114 68
-114 -3 0 -22 17 -43 38 -20 20 -44 42 -53 47 -20 12 -35 65 -18 65 6 0 27
-16 46 -36z m-517 -510 c-18 -21 -24 -10 -9 18 8 14 14 18 17 10 2 -7 -2 -19
-8 -28z m47 -24 l26 -20 -47 0 c-50 0 -56 5 -28 26 22 17 20 17 49 -6z m623
-135 c0 -5 -5 -3 -10 5 -5 8 -10 20 -10 25 0 6 5 3 10 -5 5 -8 10 -19 10 -25z
m-155 -35 c3 -5 1 -10 -4 -10 -6 0 -11 5 -11 10 0 6 2 10 4 10 3 0 8 -4 11
-10z m332 -162 c-3 -8 -6 -5 -6 6 -1 11 2 17 5 13 3 -3 4 -12 1 -19z m57 -63
c4 -34 3 -45 -4 -35 -9 14 -15 99 -6 89 2 -2 6 -26 10 -54z m-159 -240 c9 -33
19 -71 21 -85 5 -24 5 -24 -10 -6 -8 10 -20 44 -26 75 -6 31 -14 65 -17 76 -4
14 -2 17 5 10 6 -5 18 -37 27 -70z"/>
<path d="M6228 2889 c10 -13 8 -26 -9 -65 -12 -27 -27 -52 -33 -56 -8 -6 -8
-8 1 -8 17 0 51 46 58 82 5 22 3 34 -11 47 -16 14 -16 14 -6 0z"/>
<path d="M6728 2884 c-5 -4 -8 -28 -7 -53 l1 -46 9 40 c10 43 9 71 -3 59z"/>
<path d="M7535 2739 c-165 -11 -385 -51 -385 -71 0 -5 8 -7 18 -4 36 11 149
35 197 41 28 3 64 8 80 11 17 3 107 8 200 13 94 4 150 9 125 10 -25 2 -63 4
-85 5 -22 2 -89 -1 -150 -5z"/>
<path d="M6752 2683 c-28 -72 -35 -152 -39 -413 -2 -151 -6 -283 -9 -292 -3
-10 -1 -18 5 -18 6 0 11 -18 11 -40 0 -22 4 -40 9 -40 5 0 11 -9 14 -20 6 -23
37 -27 37 -4 0 8 -4 13 -9 10 -13 -9 -20 27 -32 179 -19 227 0 564 36 648 4 9
3 17 -3 17 -5 0 -14 -12 -20 -27z"/>
<path d="M6935 2509 c-52 -51 -95 -98 -95 -106 0 -7 42 29 93 81 50 52 103 99
117 105 25 10 25 10 2 10 -16 1 -52 -27 -117 -90z"/>
<path d="M2430 2562 c0 -5 10 -17 22 -28 12 -10 18 -13 14 -6 -4 6 -5 12 -1
12 3 0 78 -55 166 -121 155 -117 159 -122 143 -140 -25 -28 -7 -41 36 -29 42
12 56 1 40 -30 -8 -15 -10 -43 -6 -79 7 -63 54 -293 61 -300 10 -9 4 37 -14
114 -33 140 -43 218 -32 248 6 15 16 27 22 27 12 0 -51 78 -64 79 -4 1 -88 60
-187 131 -169 123 -200 142 -200 122z m390 -292 c0 -5 -7 -10 -16 -10 -8 0
-12 5 -9 10 3 6 10 10 16 10 5 0 9 -4 9 -10z"/>
<path d="M7140 2490 c0 -5 11 -10 25 -10 14 0 25 5 25 10 0 6 -11 10 -25 10
-14 0 -25 -4 -25 -10z"/>
<path d="M3761 2334 c0 -11 3 -14 6 -6 3 7 2 16 -1 19 -3 4 -6 -2 -5 -13z"/>
<path d="M1227 2332 c-5 -7 -12 -47 -17 -90 -4 -42 -21 -126 -38 -187 -17 -60
-38 -147 -47 -193 -19 -96 -21 -258 -3 -299 20 -45 67 -100 126 -146 104 -80
97 -70 77 -100 -13 -21 -16 -50 -16 -158 0 -73 4 -136 9 -141 5 -5 8 57 8 136
-1 173 5 188 60 135 63 -60 134 -201 196 -384 63 -188 75 -201 27 -30 -67 234
-156 395 -281 507 -140 125 -173 162 -186 204 -26 89 -8 270 48 474 32 116 51
219 48 254 -2 20 -6 27 -11 18z"/>
<path d="M5216 1748 c-4 -68 -13 -339 -21 -603 -16 -526 -27 -650 -84 -912
-26 -117 -51 -205 -63 -220 -20 -25 20 -13 163 51 79 35 249 99 377 141 248
83 292 107 292 159 0 14 -4 26 -10 26 -5 0 -10 -11 -10 -24 0 -43 -55 -72
-261 -140 -194 -63 -374 -133 -469 -181 l-51 -26 7 28 c3 15 10 42 14 58 5 17
18 75 30 130 61 284 71 407 85 1060 3 138 7 282 10 320 14 212 15 255 7 255
-5 0 -12 -55 -16 -122z"/>
<path d="M6737 1730 c3 -11 9 -20 14 -20 11 0 11 3 3 24 -9 23 -23 20 -17 -4z"/>
<path d="M2780 1403 c0 -145 -191 -660 -439 -1186 -28 -60 -51 -113 -51 -118
0 -22 30 -3 100 62 41 39 84 79 95 88 11 9 27 25 35 36 14 19 14 19 -5 5 -10
-8 -57 -50 -104 -92 -47 -43 -86 -76 -88 -74 -2 2 26 68 62 147 164 355 327
772 375 957 24 92 40 212 28 212 -4 0 -8 -17 -8 -37z"/>
<path d="M3025 1188 c50 -26 175 -129 236 -195 167 -178 294 -426 333 -648 14
-80 14 -249 1 -312 -5 -21 -4 -33 3 -33 17 0 25 102 19 229 -11 250 -108 483
-298 717 -97 119 -269 264 -313 264 -16 -1 -11 -6 19 -22z"/>
<path d="M7210 1099 c0 -4 19 -13 42 -20 42 -11 130 -8 373 11 91 8 87 8 -45
4 -80 -2 -176 -6 -215 -10 -50 -4 -82 -2 -112 9 -24 8 -43 11 -43 6z"/>
<path d="M7900 1085 c74 -7 157 -17 184 -22 47 -8 50 -10 54 -43 2 -19 8 -42
13 -50 6 -10 7 1 3 33 l-6 48 28 -6 c333 -75 781 -230 819 -282 7 -9 10 -24 7
-32 -3 -9 -1 -12 6 -7 21 13 13 34 -20 59 -52 39 -103 61 -268 116 -275 91
-443 140 -532 156 -24 4 -38 11 -38 20 0 20 13 19 63 -5 l42 -21 -24 21 c-35
30 -71 37 -87 16 -11 -16 -20 -16 -91 -6 -43 6 -125 13 -183 15 l-105 4 135
-14z"/>
<path d="M1149 979 c-24 -47 12 -166 156 -514 20 -49 52 -126 70 -170 75 -181
125 -290 134 -293 6 -2 0 23 -13 55 -27 67 -172 408 -186 438 -28 59 -102 250
-123 320 -35 112 -39 138 -21 164 8 11 11 21 5 21 -6 0 -15 -10 -22 -21z"/>
<path d="M6930 950 c-6 -23 -27 -110 -45 -193 -51 -224 -82 -330 -102 -344
-50 -38 -431 -167 -548 -188 -22 -3 -59 -15 -83 -25 -23 -11 -49 -17 -56 -14
-15 6 -49 -36 -66 -80 -15 -40 -21 -106 -10 -106 6 0 10 12 10 26 0 42 21 99
47 130 21 25 23 26 18 7 -7 -25 20 -38 73 -34 37 3 103 -28 145 -67 16 -16 26
-20 22 -11 -15 40 -109 89 -170 89 -25 0 -45 4 -45 10 0 20 49 40 182 74 152
39 269 78 396 133 46 19 85 34 87 32 10 -11 -117 -295 -157 -352 -11 -16 -18
-30 -15 -33 14 -15 146 247 178 355 13 43 13 44 148 108 412 196 683 297 921
342 112 21 120 23 213 58 37 13 67 29 67 34 0 5 -12 3 -27 -4 -45 -23 -150
-53 -279 -81 -261 -56 -471 -134 -887 -330 -130 -61 -142 -65 -129 -38 19 36
136 532 128 540 -3 2 -10 -15 -16 -38z"/>
<path d="M3680 829 c0 -13 5 -53 11 -89 6 -36 23 -154 39 -264 16 -109 32
-201 35 -204 9 -9 6 19 -20 194 -14 93 -33 216 -41 273 -14 102 -24 139 -24
90z"/>
<path d="M2140 613 c-54 -31 -80 -53 -80 -65 0 -6 14 2 31 17 18 14 49 35 70
46 37 18 48 29 32 29 -5 0 -28 -12 -53 -27z"/>
<path d="M7820 531 c-9 -6 12 -8 60 -4 66 4 198 -6 300 -24 19 -3 32 -2 29 1
-23 25 -357 47 -389 27z"/>
<path d="M8416 343 c-28 -134 -55 -354 -43 -343 7 6 10 25 27 155 7 50 16 92
20 95 10 7 19 120 9 120 -4 0 -10 -12 -13 -27z"/>
<path d="M9331 334 c0 -11 3 -14 6 -6 3 7 2 16 -1 19 -3 4 -6 -2 -5 -13z"/>
<path d="M6862 270 c-2 -3 -4 -66 -6 -140 -3 -116 -3 -125 5 -65 8 59 8 221 1
205z"/>
<path d="M9211 163 c-13 -46 -15 -163 -2 -163 8 0 22 190 15 198 -1 2 -7 -13
-13 -35z"/>
<path d="M8533 96 c-50 -74 -60 -96 -44 -96 6 0 11 4 11 9 0 4 20 39 45 75 47
71 50 76 38 76 -5 0 -27 -29 -50 -64z"/>
<path d="M4911 74 c-23 -37 -39 -69 -36 -72 3 -3 6 -3 8 -1 2 2 14 22 28 44
14 22 34 52 43 68 10 15 14 27 9 27 -5 0 -28 -30 -52 -66z"/>
<path d="M8907 68 c-21 -33 -30 -68 -18 -68 6 0 11 8 11 18 0 10 7 28 16 40 9
13 14 26 11 29 -3 2 -12 -6 -20 -19z"/>
<path d="M8436 12 c-2 -4 4 -8 14 -8 10 0 16 4 14 8 -7 10 -21 10 -28 0z"/>
</g>
</svg>
