<?xml version="1.0" standalone="no"?>
<!DOCTYPE svg PUBLIC "-//W3C//DTD SVG 20010904//EN"
 "http://www.w3.org/TR/2001/REC-SVG-20010904/DTD/svg10.dtd">
<svg version="1.0" xmlns="http://www.w3.org/2000/svg"
 width="533.000000pt" height="469.000000pt" viewBox="0 0 533.000000 469.000000"
 preserveAspectRatio="xMidYMid meet">

<g transform="translate(0.000000,469.000000) scale(0.100000,-0.100000)"
fill="#000000" stroke="none">
<path d="M2108 4473 c7 -3 16 -2 19 1 4 3 -2 6 -13 5 -11 0 -14 -3 -6 -6z"/>
<path d="M2050 4455 c-14 -8 -20 -14 -15 -14 6 0 21 6 35 14 14 8 21 14 15 14
-5 0 -21 -6 -35 -14z"/>
<path d="M2207 4463 c18 -2 50 -2 70 0 21 2 7 4 -32 4 -38 0 -55 -2 -38 -4z"/>
<path d="M2133 4453 c9 -2 23 -2 30 0 6 3 -1 5 -18 5 -16 0 -22 -2 -12 -5z"/>
<path d="M2355 4449 c51 -10 92 -10 50 1 -16 4 -43 8 -60 8 -25 0 -24 -2 10
-9z"/>
<path d="M1974 4411 c-21 -16 -55 -45 -73 -65 -19 -20 -44 -36 -55 -36 -17 0
-18 -2 -7 -9 12 -8 12 -12 2 -25 -8 -10 -9 -16 -3 -16 6 0 13 8 17 19 6 19 88
100 140 138 17 12 27 23 24 23 -3 0 -24 -13 -45 -29z"/>
<path d="M2448 4433 c7 -3 16 -2 19 1 4 3 -2 6 -13 5 -11 0 -14 -3 -6 -6z"/>
<path d="M2630 4368 c0 -2 21 -21 48 -43 26 -21 38 -28 27 -16 -19 23 -75 66
-75 59z"/>
<path d="M1714 4284 c-41 -42 -73 -78 -71 -81 2 -2 -10 -18 -27 -37 -45 -48
-139 -186 -127 -186 6 0 17 14 26 30 9 17 19 30 24 30 4 0 13 11 19 24 19 42
133 155 189 187 30 17 52 33 49 36 -6 7 -99 -52 -116 -73 -7 -7 -17 -14 -23
-14 -7 0 24 36 68 80 44 44 76 80 72 80 -5 0 -42 -34 -83 -76z"/>
<path d="M2520 4223 c14 -9 39 -28 56 -42 16 -14 10 -7 -14 17 -24 23 -49 42
-55 42 -6 0 0 -7 13 -17z"/>
<path d="M2770 4237 c0 -2 15 -16 33 -33 l32 -29 -29 33 c-28 30 -36 37 -36
29z"/>
<path d="M2840 4156 c0 -2 8 -10 18 -17 15 -13 16 -12 3 4 -13 16 -21 21 -21
13z"/>
<path d="M2762 4105 c15 -17 39 -56 53 -87 27 -58 43 -79 25 -33 -20 54 -49
101 -77 125 l-28 25 27 -30z"/>
<path d="M2116 4101 c-4 -5 2 -7 12 -4 39 10 145 -137 182 -252 7 -22 15 -44
19 -50 3 -5 5 -19 3 -30 l-2 -20 9 20 c8 18 11 15 29 -25 11 -25 22 -52 25
-60 5 -13 6 -13 6 1 1 19 -48 119 -58 119 -4 0 -13 19 -20 43 -40 135 -176
306 -205 258z"/>
<path d="M2870 4099 c0 -4 11 -36 24 -72 14 -35 23 -67 20 -70 -3 -3 1 -27 10
-53 13 -45 15 -46 15 -17 1 32 -41 175 -59 203 -5 8 -10 12 -10 9z"/>
<path d="M2717 3965 c9 -19 18 -33 21 -31 4 5 -26 66 -33 66 -3 0 3 -16 12
-35z"/>
<path d="M1961 3924 c-4 -43 56 -159 123 -239 l24 -30 -26 -30 -27 -30 31 28
c17 15 34 24 39 20 4 -5 5 -3 1 4 -3 6 -2 14 3 17 5 4 18 -7 27 -24 10 -16 22
-30 27 -30 4 0 -3 15 -17 33 l-26 34 29 25 28 26 73 -39 c40 -21 77 -44 82
-51 5 -9 8 -9 8 -1 0 6 -6 18 -13 25 -7 7 -26 36 -41 63 -47 82 -113 171 -140
189 -14 9 -26 12 -26 6 0 -6 8 -14 18 -17 22 -9 41 -31 97 -114 51 -76 66
-107 44 -94 -7 5 -22 10 -31 10 -22 2 -115 65 -148 100 -13 14 -27 25 -32 25
-11 0 -10 -32 2 -50 8 -11 9 -7 4 15 l-7 30 50 -45 51 -45 -21 -22 c-28 -31
-33 -29 -47 13 -7 19 -14 33 -17 31 -2 -3 3 -22 11 -42 20 -46 10 -66 -16 -34
-57 72 -103 149 -119 198 -9 31 -18 51 -18 45z"/>
<path d="M2702 3895 c0 -33 1 -36 7 -15 7 24 8 23 31 -20 16 -31 25 -40 28
-28 2 9 -5 25 -15 35 -10 10 -26 30 -35 43 l-17 25 1 -40z"/>
<path d="M2768 3923 c7 -3 16 -2 19 1 4 3 -2 6 -13 5 -11 0 -14 -3 -6 -6z"/>
<path d="M2740 3915 c0 -5 5 -17 10 -25 5 -8 10 -10 10 -5 0 6 -5 17 -10 25
-5 8 -10 11 -10 5z"/>
<path d="M2800 3917 c0 -2 25 -25 55 -51 30 -26 55 -43 55 -39 0 5 -25 28 -55
51 -30 24 -55 42 -55 39z"/>
<path d="M2892 3890 c0 -14 2 -19 5 -12 2 6 2 18 0 25 -3 6 -5 1 -5 -13z"/>
<path d="M2615 3803 c4 -10 11 -31 15 -48 7 -28 8 -28 9 -5 1 35 -9 70 -21 70
-6 0 -7 -8 -3 -17z"/>
<path d="M2699 3783 l-1 -38 -9 34 c-13 43 -21 35 -10 -10 5 -19 12 -61 15
-94 l6 -60 -24 45 c-34 62 -32 38 2 -28 l28 -53 0 120 c0 67 -1 121 -3 121 -2
0 -3 -17 -4 -37z"/>
<path d="M2824 3795 c10 -14 28 -47 42 -72 13 -25 24 -40 24 -33 0 14 -68 130
-77 130 -3 0 2 -11 11 -25z"/>
<path d="M2794 3761 c11 -18 12 -28 5 -37 -6 -7 -8 -18 -4 -25 6 -8 10 -7 16
2 13 21 11 35 -12 60 l-21 24 16 -24z"/>
<path d="M2435 3707 c-4 -19 -5 -47 -2 -63 3 -23 4 -20 6 13 1 51 10 75 24 66
6 -3 7 -1 3 5 -13 21 -25 13 -31 -21z"/>
<path d="M2934 3728 c3 -10 1 -20 -4 -23 -6 -4 -10 -12 -10 -18 0 -7 4 -6 10
3 9 13 11 13 20 0 9 -13 10 -13 10 1 0 8 -7 24 -16 35 -13 16 -15 16 -10 2z"/>
<path d="M2023 3685 c0 -22 2 -30 4 -17 2 12 2 30 0 40 -3 9 -5 -1 -4 -23z"/>
<path d="M2621 3694 c0 -11 3 -14 6 -6 3 7 2 16 -1 19 -3 4 -6 -2 -5 -13z"/>
<path d="M2480 3685 c0 -5 5 -17 10 -25 5 -8 10 -10 10 -5 0 6 -5 17 -10 25
-5 8 -10 11 -10 5z"/>
<path d="M2834 3666 c-39 -17 -63 -50 -70 -96 -4 -25 -15 -42 -37 -58 -45 -30
-181 -165 -246 -242 -30 -36 5 -3 78 72 76 80 160 155 197 179 35 23 62 44 59
47 -2 3 -11 -1 -20 -8 -24 -20 -30 -3 -12 35 9 20 33 45 52 56 19 12 35 23 35
25 0 5 0 5 -36 -10z"/>
<path d="M2930 3632 c-33 -28 -42 -32 -37 -17 6 19 6 19 -6 1 -7 -11 -27 -37
-46 -58 -48 -55 -27 -47 38 15 31 29 70 62 86 74 17 13 26 22 20 22 -5 1 -30
-16 -55 -37z"/>
<path d="M2237 3579 c-37 -43 -75 -79 -83 -79 -23 0 -17 15 29 64 24 25 40 46
37 46 -4 0 -36 -31 -71 -70 l-63 -70 -15 28 c-8 16 -16 22 -19 14 -2 -7 5 -28
16 -47 15 -24 17 -32 6 -28 -8 3 -14 8 -14 12 -1 3 -16 24 -36 46 l-34 40 16
-40 c23 -56 63 -135 69 -135 3 0 -4 18 -15 40 -27 53 -26 55 15 24 19 -14 35
-21 35 -15 0 6 -4 11 -8 11 -5 0 -8 10 -7 23 2 22 30 32 30 10 0 -6 3 -15 8
-19 4 -4 7 -1 7 7 0 8 10 2 25 -15 24 -28 34 -26 16 3 -10 16 46 94 60 85 5
-3 9 5 9 19 0 13 13 36 30 52 17 16 30 24 30 18 0 -6 3 -19 7 -29 4 -12 3 -15
-5 -10 -7 4 -12 2 -12 -4 0 -6 -5 -8 -12 -4 -7 5 -9 2 -5 -9 3 -8 -1 -21 -9
-27 -8 -7 -14 -17 -14 -22 0 -6 6 -6 14 1 11 9 15 9 18 -1 4 -10 9 -10 23 2
10 8 20 14 22 13 1 -2 3 -1 3 2 0 3 0 8 0 12 0 4 -5 2 -12 -5 -16 -16 -28 -15
-28 3 0 7 8 18 17 24 16 8 16 14 6 42 -8 21 -9 37 -3 44 9 11 4 26 -9 24 -3 0
-37 -36 -74 -80z m53 32 c-5 -11 -15 -23 -22 -27 -7 -5 -8 -2 -3 7 21 37 44
55 25 20z m-130 -131 c0 -5 -5 -12 -11 -16 -14 -8 -33 11 -25 25 7 11 36 4 36
-9z m-122 -25 c-3 -3 -9 2 -12 12 -6 14 -5 15 5 6 7 -7 10 -15 7 -18z"/>
<path d="M2402 3640 c0 -14 2 -19 5 -12 2 6 2 18 0 25 -3 6 -5 1 -5 -13z"/>
<path d="M2501 3624 c0 -11 3 -14 6 -6 3 7 2 16 -1 19 -3 4 -6 -2 -5 -13z"/>
<path d="M2596 3625 c-9 -26 -7 -32 5 -12 6 10 9 21 6 23 -2 3 -7 -2 -11 -11z"/>
<path d="M2032 3595 c-2 -52 14 -79 20 -36 2 17 1 31 -3 31 -4 0 -10 10 -12
23 -2 12 -5 5 -5 -18z"/>
<path d="M2550 3608 c0 -13 -7 -31 -15 -41 -13 -18 -14 -17 -18 5 -3 16 -5 12
-5 -12 l-1 -35 23 29 c25 30 40 76 25 76 -5 0 -9 -10 -9 -22z"/>
<path d="M2348 3573 c2 -13 9 -20 14 -17 5 3 7 9 4 12 -3 3 -2 10 4 16 6 8 3
12 -9 12 -13 0 -16 -6 -13 -23z"/>
<path d="M1645 3565 c6 -33 81 -195 90 -195 3 0 -9 28 -26 63 -18 34 -40 85
-51 112 -10 28 -16 37 -13 20z"/>
<path d="M2571 3573 c-7 -8 -11 -16 -8 -19 2 -2 10 2 17 11 17 20 9 27 -9 8z"/>
<path d="M2411 3564 c0 -11 3 -14 6 -6 3 7 2 16 -1 19 -3 4 -6 -2 -5 -13z"/>
<path d="M3222 3495 c23 -46 44 -83 46 -81 4 5 -76 166 -83 166 -3 0 14 -38
37 -85z"/>
<path d="M1401 3544 c0 -11 3 -14 6 -6 3 7 2 16 -1 19 -3 4 -6 -2 -5 -13z"/>
<path d="M2845 3476 c-70 -33 -159 -95 -225 -156 -48 -44 -19 -25 64 43 37 30
106 75 152 98 73 37 93 49 81 49 -1 0 -34 -15 -72 -34z"/>
<path d="M2957 3468 c8 -46 13 -48 13 -5 0 21 -4 37 -10 37 -5 0 -7 -14 -3
-32z"/>
<path d="M2304 3468 l-19 -23 23 19 c21 18 27 26 19 26 -2 0 -12 -10 -23 -22z"/>
<path d="M1390 3463 c0 -13 5 -23 10 -23 13 0 13 11 0 30 -8 12 -10 11 -10 -7z"/>
<path d="M1571 3434 c0 -11 3 -14 6 -6 3 7 2 16 -1 19 -3 4 -6 -2 -5 -13z"/>
<path d="M2260 3440 c-9 -6 -10 -10 -3 -10 6 0 15 5 18 10 8 12 4 12 -15 0z"/>
<path d="M1572 3385 c0 -16 2 -22 5 -12 2 9 2 23 0 30 -3 6 -5 -1 -5 -18z"/>
<path d="M1420 3385 c0 -5 5 -17 10 -25 5 -8 10 -10 10 -5 0 6 -5 17 -10 25
-5 8 -10 11 -10 5z"/>
<path d="M1889 3365 c5 -11 25 -35 45 -54 19 -19 33 -38 30 -43 -3 -4 1 -8 8
-8 7 0 24 -3 38 -6 21 -4 21 -3 -5 9 -37 18 -93 75 -60 62 24 -10 165 -15 165
-5 0 3 -5 11 -11 17 -9 9 -16 8 -27 -4 -12 -12 -27 -14 -66 -8 -28 4 -59 8
-70 9 -10 1 -27 13 -38 27 -14 17 -17 18 -9 4z"/>
<path d="M1401 3354 c0 -11 3 -14 6 -6 3 7 2 16 -1 19 -3 4 -6 -2 -5 -13z"/>
<path d="M1800 3367 c0 -4 15 -29 33 -55 48 -69 54 -80 30 -59 -11 9 -24 17
-31 17 -6 0 -29 21 -52 48 -26 29 -34 34 -21 15 13 -18 20 -33 16 -33 -6 0 36
-61 89 -126 l33 -41 34 36 c28 30 30 33 8 19 -25 -16 -27 -16 -48 10 l-23 27
17 -28 c28 -48 10 -41 -39 15 -54 62 -59 80 -13 46 66 -50 93 -44 46 9 -17 20
-28 37 -26 40 3 2 23 -5 46 -16 22 -12 44 -21 48 -21 4 1 -14 12 -42 27 -27
14 -62 37 -77 51 -16 14 -28 23 -28 19z"/>
<path d="M1581 3334 c0 -11 3 -14 6 -6 3 7 2 16 -1 19 -3 4 -6 -2 -5 -13z"/>
<path d="M3342 3247 c23 -53 43 -95 45 -93 5 4 -66 168 -78 180 -5 6 10 -34
33 -87z"/>
<path d="M1450 3311 c0 -6 4 -13 10 -16 6 -3 7 1 4 9 -7 18 -14 21 -14 7z"/>
<path d="M3367 3284 c25 -35 97 -103 136 -129 37 -24 125 -157 133 -201 4 -22
-1 -67 -15 -124 -11 -49 -21 -94 -21 -101 0 -28 12 4 30 80 20 82 24 146 12
188 -12 41 -96 145 -142 176 -25 17 -70 56 -100 86 -30 31 -45 42 -33 25z"/>
<path d="M1600 3276 c0 -11 57 -119 74 -141 9 -11 -3 16 -26 60 -45 86 -48 92
-48 81z"/>
<path d="M1411 3254 c0 -11 3 -14 6 -6 3 7 2 16 -1 19 -3 4 -6 -2 -5 -13z"/>
<path d="M1777 3240 c3 -11 9 -22 13 -25 5 -3 6 4 3 15 -3 11 -9 22 -13 25 -5
3 -6 -4 -3 -15z"/>
<path d="M3241 3223 c-30 -36 -129 -256 -171 -379 -32 -91 -17 -73 19 24 58
153 132 316 162 355 39 48 30 48 -10 0z"/>
<path d="M1512 3210 c0 -14 2 -19 5 -12 2 6 2 18 0 25 -3 6 -5 1 -5 -13z"/>
<path d="M1461 3204 c0 -11 3 -14 6 -6 3 7 2 16 -1 19 -3 4 -6 -2 -5 -13z"/>
<path d="M1930 3212 c0 -4 16 -6 37 -4 l36 5 -38 -46 c-20 -25 -36 -47 -34
-50 2 -3 -5 -14 -15 -26 l-19 -21 -44 65 c-24 36 -46 65 -49 65 -6 0 3 -16 33
-56 29 -39 29 -50 1 -30 -12 9 -27 16 -33 16 -5 0 3 -8 18 -19 33 -22 59 -56
49 -65 -3 -4 1 -4 10 -1 9 4 28 22 42 40 18 23 32 32 44 28 28 -7 102 16 102
31 0 7 -9 21 -19 30 -18 17 -20 17 -30 -2 -10 -19 -6 -32 11 -32 4 0 8 8 8 17
0 12 3 14 11 6 16 -16 1 -36 -22 -30 -10 3 -22 1 -25 -4 -3 -5 -14 -9 -25 -9
-18 0 -18 3 8 35 39 49 61 54 90 21 13 -15 23 -23 23 -19 -1 14 -24 39 -47 51
-24 13 -123 16 -123 4z"/>
<path d="M1422 3175 c0 -16 2 -22 5 -12 2 9 2 23 0 30 -3 6 -5 -1 -5 -18z"/>
<path d="M2384 3153 c-51 -64 -57 -73 -52 -73 3 0 26 27 51 60 26 33 45 60 43
60 -3 0 -22 -21 -42 -47z"/>
<path d="M1446 3165 c-9 -26 -7 -32 5 -12 6 10 9 21 6 23 -2 3 -7 -2 -11 -11z"/>
<path d="M1521 3170 c0 -8 4 -22 9 -30 12 -18 12 -2 0 25 -6 13 -9 15 -9 5z"/>
<path d="M1600 3119 c0 -19 4 -41 9 -48 6 -10 8 1 4 30 -7 55 -13 63 -13 18z"/>
<path d="M1626 3137 c3 -10 9 -15 12 -12 3 3 0 11 -7 18 -10 9 -11 8 -5 -6z"/>
<path d="M3392 3130 c24 -64 61 -150 64 -147 5 4 -53 148 -63 156 -3 3 -4 -1
-1 -9z"/>
<path d="M2042 3082 l-23 -37 26 28 c14 15 25 32 25 38 0 14 -3 11 -28 -29z"/>
<path d="M1760 3095 c0 -9 4 -14 9 -11 5 3 22 -4 37 -16 l29 -22 -20 23 c-29
34 -55 46 -55 26z"/>
<path d="M2130 3085 c0 -5 5 -17 10 -25 5 -8 10 -10 10 -5 0 6 -5 17 -10 25
-5 8 -10 11 -10 5z"/>
<path d="M1770 3058 c0 -9 16 -34 35 -55 19 -21 35 -41 35 -44 0 -4 12 -15 28
-24 l27 -18 -29 32 c-17 17 -26 31 -21 31 5 0 -1 7 -14 16 -12 9 -31 30 -42
48 -12 20 -19 25 -19 14z"/>
<path d="M2252 2965 c-37 -57 -69 -104 -72 -105 -3 0 -30 18 -60 40 l-55 41
52 -46 52 -46 -21 -35 c-12 -20 -15 -34 -9 -34 9 0 9 -6 1 -22 -10 -21 -10
-21 9 2 10 13 17 28 15 32 -4 7 37 76 130 221 20 31 34 57 31 57 -3 0 -36 -47
-73 -105z"/>
<path d="M1704 3023 c22 -24 42 -40 45 -38 2 3 2 6 0 8 -2 1 -22 18 -44 37
l-40 35 39 -42z"/>
<path d="M1949 3029 c13 -5 42 -24 64 -42 l41 -32 -24 34 c-25 33 -57 52 -88
50 -12 0 -10 -3 7 -10z"/>
<path d="M1633 3008 c1 -15 6 -23 11 -18 4 4 4 16 -2 26 -9 16 -10 14 -9 -8z"/>
<path d="M3676 2973 c8 -47 18 -60 12 -15 -2 17 -3 32 -1 32 13 0 93 -53 113
-75 29 -30 51 -34 24 -3 -21 23 -132 98 -146 98 -5 0 -6 -17 -2 -37z"/>
<path d="M3760 2995 c0 -8 181 -127 186 -122 3 2 -1 9 -8 14 -25 20 -178 113
-178 108z"/>
<path d="M1900 2965 c0 -7 61 -37 66 -32 7 7 -26 31 -47 34 -10 2 -19 1 -19
-2z"/>
<path d="M3463 2957 c4 -10 0 -17 -11 -20 -12 -3 -11 -5 6 -6 12 0 22 -7 22
-13 0 -10 2 -10 8 0 7 10 15 8 38 -9 l29 -21 -30 26 c-16 14 -39 33 -49 42
-17 15 -19 16 -13 1z"/>
<path d="M3390 2920 c-18 -12 -2 -12 25 0 13 6 15 9 5 9 -8 0 -22 -4 -30 -9z"/>
<path d="M3295 2877 c-85 -45 -201 -165 -248 -254 -50 -97 -40 -94 13 3 54 98
152 197 245 246 39 21 66 37 60 37 -5 0 -37 -14 -70 -32z"/>
<path d="M3490 2895 c0 -5 9 -23 20 -40 26 -39 26 -25 0 17 -11 18 -20 29 -20
23z"/>
<path d="M2247 2828 c3 -18 12 -55 19 -83 l13 -50 -4 45 c-4 42 -4 43 6 13 5
-18 14 -33 20 -33 6 0 7 -4 4 -10 -6 -10 24 -124 31 -117 2 2 -3 26 -11 53 -8
27 -15 53 -15 57 0 14 34 -10 102 -73 41 -37 72 -59 79 -54 7 4 9 3 5 -4 -9
-14 74 -91 92 -85 9 4 6 10 -10 22 -13 8 -25 16 -28 16 -3 0 -24 25 -47 56
-24 31 -51 62 -60 70 -10 7 -7 1 6 -14 35 -39 20 -44 -20 -7 -19 17 -55 47
-81 67 -38 30 -51 48 -69 100 -24 67 -43 85 -32 31z"/>
<path d="M3714 2835 c-6 -15 14 -50 24 -40 3 2 -1 11 -8 20 -11 13 -8 15 19
15 45 0 105 -34 168 -93 29 -27 53 -45 53 -39 0 6 -28 35 -62 63 -94 78 -180
111 -194 74z"/>
<path d="M3990 2799 c0 -5 53 -34 118 -66 64 -31 146 -74 182 -96 36 -22 94
-56 130 -76 91 -51 134 -117 191 -296 24 -75 45 -133 46 -128 2 4 -8 44 -22
88 -13 43 -23 81 -21 82 5 6 66 -137 99 -232 30 -86 31 -97 32 -255 0 -127 -4
-184 -19 -248 -16 -69 -22 -82 -35 -76 -31 15 -242 -6 -307 -29 -150 -55 -417
-247 -591 -426 -73 -74 -102 -121 -41 -65 l32 29 -29 -36 c-17 -19 -32 -31
-34 -26 -1 4 -11 1 -21 -8 -10 -9 -20 -13 -23 -8 -14 24 -107 254 -117 292 -6
23 -14 40 -17 37 -8 -7 27 -109 77 -226 22 -51 40 -107 40 -123 0 -31 -33 -89
-161 -284 -37 -56 -82 -140 -99 -185 -18 -46 -35 -87 -38 -93 -4 -5 -5 -19 -4
-31 2 -11 -2 -33 -8 -48 -6 -17 -6 -25 0 -21 6 3 10 12 10 20 0 16 27 45 41
45 6 0 7 -6 3 -12 -5 -9 -2 -9 9 1 18 15 23 26 7 16 -5 -3 -10 -2 -10 3 0 12
25 33 32 27 2 -3 44 40 93 94 48 54 122 128 163 162 42 35 118 101 170 147 52
45 101 82 108 82 7 0 14 4 16 9 7 19 169 111 195 111 16 0 65 5 110 11 72 11
84 10 98 -5 17 -17 30 -22 21 -7 -8 12 193 22 256 11 52 -8 85 -21 163 -64 33
-18 80 -22 70 -6 -3 6 -13 10 -21 10 -9 0 -36 12 -62 27 -41 24 -44 28 -24 31
13 2 30 -2 38 -9 10 -8 51 -13 118 -13 132 -1 145 -9 176 -108 21 -68 22 -78
11 -148 -16 -92 -32 -132 -71 -176 -16 -19 -30 -40 -31 -47 -8 -128 1 -167 36
-153 8 3 15 0 15 -7 0 -29 -53 -117 -85 -142 -19 -14 -35 -33 -35 -41 0 -15
-3 -17 73 54 38 35 65 100 69 164 1 20 6 34 10 32 5 -3 22 25 39 63 17 37 51
108 76 156 57 113 65 140 49 172 -7 14 -16 22 -19 19 -3 -3 -12 7 -21 24 -26
50 -95 78 -96 38 0 -6 -11 11 -24 37 l-24 48 24 26 c14 15 24 38 24 56 0 65
-21 104 -99 180 -42 41 -108 106 -147 144 l-71 69 -6 100 c-6 82 -16 146 -41
249 -1 6 -8 21 -15 34 -9 17 -11 42 -6 87 4 38 3 64 -3 64 -5 0 -12 25 -16 56
-8 71 -63 220 -132 354 -29 58 -60 122 -68 143 -8 20 -18 37 -22 37 -3 0 -3
-7 0 -16 3 -9 -14 6 -40 32 -25 27 -43 43 -39 37 11 -22 -6 -14 -99 46 -101
65 -356 194 -356 180z m795 -1107 c15 -60 39 -272 31 -280 -2 -2 -22 9 -45 25
-43 30 -52 63 -31 119 6 14 13 66 17 115 3 49 7 88 9 87 1 -2 10 -31 19 -66z
m-260 -222 c-11 -5 -38 -9 -60 -9 -31 0 -36 2 -20 9 11 5 38 9 60 9 31 0 36
-2 20 -9z m-545 -285 c-7 -9 -32 -30 -54 -47 -35 -26 -34 -24 9 15 52 48 67
58 45 32z m1296 -500 c-4 -14 -10 -25 -15 -25 -5 0 -4 13 2 30 13 35 22 32 13
-5z m-36 -59 c0 -2 -8 -10 -17 -17 -16 -13 -17 -12 -4 4 13 16 21 21 21 13z
m-30 -40 c0 -2 -8 -10 -17 -17 -16 -13 -17 -12 -4 4 13 16 21 21 21 13z
m-1629 -83 c-5 -10 -26 -34 -47 -53 l-37 -35 31 47 c27 39 40 52 60 57 1 1 -2
-7 -7 -16z"/>
<path d="M3026 2723 c-9 -26 -12 -43 -7 -38 11 13 32 77 27 82 -2 2 -11 -17
-20 -44z"/>
<path d="M3607 2671 c-36 -54 -137 -174 -209 -249 -34 -34 -59 -65 -56 -68 11
-10 298 325 298 347 0 16 -7 10 -33 -30z"/>
<path d="M2180 2658 c53 -41 141 -90 148 -84 2 3 -19 20 -47 37 -54 34 -62 41
-33 34 9 -3 -1 3 -23 14 -77 36 -94 36 -45 -1z"/>
<path d="M2282 2670 c0 -14 2 -19 5 -12 2 6 2 18 0 25 -3 6 -5 1 -5 -13z"/>
<path d="M3168 2593 c-61 -86 -71 -103 -64 -103 2 0 29 35 58 78 62 88 71 102
65 102 -2 0 -29 -35 -59 -77z"/>
<path d="M1306 2615 c24 -39 24 -40 24 -28 0 6 -9 21 -21 34 l-20 24 17 -30z"/>
<path d="M956 2597 c3 -10 9 -15 12 -12 3 3 0 11 -7 18 -10 9 -11 8 -5 -6z"/>
<path d="M3256 2560 c-20 -22 -36 -43 -36 -47 0 -10 60 49 71 70 15 27 4 20
-35 -23z"/>
<path d="M3869 2508 c-23 -18 -45 -40 -47 -48 -3 -8 14 2 36 23 23 20 51 37
63 37 11 0 17 5 14 10 -10 16 -21 12 -66 -22z"/>
<path d="M2315 2501 c11 -13 39 -37 63 -53 24 -17 39 -34 36 -40 -5 -7 -2 -8
6 -3 9 5 10 2 6 -14 -3 -11 -9 -30 -12 -42 -3 -12 5 -42 21 -75 33 -68 36 -64
-118 -208 -103 -96 -119 -117 -165 -204 l-51 -97 -3 -158 c-2 -86 0 -157 4
-157 4 0 2 -15 -3 -32 -12 -43 -11 -57 2 -38 8 12 9 7 6 -17 -2 -18 0 -33 4
-33 4 0 10 -8 12 -17 3 -10 4 25 3 77 0 52 3 112 7 133 6 27 5 37 -2 32 -8 -4
-11 28 -11 101 0 105 1 108 44 199 24 51 61 111 82 134 40 42 72 58 38 19 -10
-13 -2 -8 20 10 21 18 56 54 78 80 23 26 45 49 49 50 5 2 9 9 9 15 0 7 7 20
15 30 13 18 16 16 52 -23 21 -23 42 -51 47 -61 5 -10 13 -19 18 -19 6 0 -6 21
-26 48 -95 124 -116 160 -116 202 0 29 3 39 12 34 7 -5 9 -2 5 9 -4 11 -2 14
7 11 8 -3 17 -1 21 5 3 6 -2 14 -12 17 -38 11 -85 39 -126 73 -23 19 -33 25
-22 12z m65 -394 c0 -2 -19 -21 -42 -42 l-43 -40 40 43 c36 39 45 47 45 39z"/>
<path d="M4077 2465 c-37 -26 -52 -44 -19 -26 23 14 68 50 62 51 -3 0 -22 -11
-43 -25z"/>
<path d="M3361 2454 c-13 -13 -64 -36 -115 -53 -182 -60 -245 -72 -392 -78
l-141 -5 -36 60 c-21 33 -44 66 -54 73 -9 8 2 -14 25 -47 23 -34 42 -65 42
-69 0 -3 -29 -5 -65 -3 -39 2 -61 -1 -55 -6 5 -5 72 -14 147 -19 166 -10 255
0 424 48 146 42 210 69 240 101 29 31 12 30 -20 -2z"/>
<path d="M3487 2453 c-8 -10 -18 -31 -21 -48 -6 -29 -6 -29 7 4 7 18 21 39 32
47 10 8 14 14 8 14 -5 0 -17 -8 -26 -17z"/>
<path d="M1287 2403 c-32 -51 -49 -83 -43 -83 2 0 13 15 24 33 11 19 27 46 37
60 9 15 15 27 11 27 -3 0 -16 -17 -29 -37z"/>
<path d="M3225 2425 c-25 -12 -26 -14 -5 -9 28 7 60 23 45 23 -5 0 -23 -6 -40
-14z"/>
<path d="M2490 2415 c0 -5 5 -17 10 -25 5 -8 10 -10 10 -5 0 6 -5 17 -10 25
-5 8 -10 11 -10 5z"/>
<path d="M4012 2351 c-22 -16 -43 -35 -47 -41 -5 -9 73 46 94 66 16 15 -13 -1
-47 -25z"/>
<path d="M3453 2325 c0 -27 2 -38 4 -22 2 15 2 37 0 50 -2 12 -4 0 -4 -28z"/>
<path d="M4491 2335 c0 -5 8 -39 20 -75 47 -148 60 -246 85 -612 4 -66 9 -88
20 -88 8 0 14 10 14 23 0 18 -2 19 -10 7 -7 -11 -10 4 -10 50 0 120 -21 344
-40 440 -18 86 -78 280 -79 255z"/>
<path d="M1012 2300 c0 -14 2 -19 5 -12 2 6 2 18 0 25 -3 6 -5 1 -5 -13z"/>
<path d="M917 2283 c-7 -11 6 -99 15 -109 5 -4 -1 89 -6 111 -1 5 -5 4 -9 -2z"/>
<path d="M3930 2260 c-12 -16 -19 -30 -16 -30 2 0 14 14 26 30 12 17 19 30 16
30 -2 0 -14 -13 -26 -30z"/>
<path d="M1231 2264 c0 -11 3 -14 6 -6 3 7 2 16 -1 19 -3 4 -6 -2 -5 -13z"/>
<path d="M1022 2235 c0 -16 2 -22 5 -12 2 9 2 23 0 30 -3 6 -5 -1 -5 -18z"/>
<path d="M1145 2209 c-4 -6 -5 -12 -2 -15 2 -3 7 2 10 11 7 17 1 20 -8 4z"/>
<path d="M2766 2180 c2 -19 16 -95 29 -168 14 -73 26 -143 26 -155 1 -15 3
-17 6 -6 5 19 -30 227 -52 309 -8 30 -12 39 -9 20z"/>
<path d="M1028 2160 c-7 -40 -5 -47 18 -67 14 -13 30 -23 36 -23 7 0 3 7 -8
15 -18 14 -18 14 11 15 17 1 24 4 17 7 -10 4 -10 8 0 21 11 14 9 14 -8 0 -37
-32 -53 -23 -56 30 l-3 47 -7 -45z"/>
<path d="M1212 2170 c0 -14 2 -19 5 -12 2 6 2 18 0 25 -3 6 -5 1 -5 -13z"/>
<path d="M2678 2145 c-3 -14 -1 -25 3 -25 5 0 9 11 9 25 0 14 -2 25 -4 25 -2
0 -6 -11 -8 -25z"/>
<path d="M3866 2153 c-6 -14 -5 -15 5 -6 7 7 10 15 7 18 -3 3 -9 -2 -12 -12z"/>
<path d="M4205 2138 c-81 -50 -155 -119 -268 -250 -123 -142 -173 -208 -158
-208 6 0 17 13 25 29 18 35 84 93 99 88 6 -2 14 -14 18 -28 6 -22 7 -22 8 -3
1 25 -23 49 -39 39 -5 -3 -10 -2 -10 4 0 5 64 75 143 154 111 113 155 151 201
173 l59 28 19 -24 c10 -12 21 -20 25 -16 11 10 -29 46 -51 46 -12 0 -43 -14
-71 -32z"/>
<path d="M883 2091 c-72 -75 -75 -79 -52 -86 24 -8 26 -52 2 -58 -15 -4 -14
-5 2 -6 14 -1 25 -12 33 -35 7 -19 28 -48 47 -65 19 -17 36 -41 36 -53 1 -18
2 -19 6 -5 4 14 11 17 31 13 26 -5 26 -5 4 6 -14 7 -21 17 -17 26 4 12 3 13
-10 2 -32 -27 -105 81 -105 156 0 11 -4 24 -10 30 -6 6 -1 23 16 48 20 29 31
37 49 34 18 -4 21 -1 17 14 -2 10 -6 18 -8 18 -2 0 -20 -18 -41 -39z"/>
<path d="M4661 2110 c0 -8 4 -24 9 -35 5 -13 9 -14 9 -5 0 8 -4 24 -9 35 -5
13 -9 14 -9 5z"/>
<path d="M2671 2075 c0 -11 6 -47 13 -80 8 -33 14 -51 15 -40 0 11 -6 47 -13
80 -8 33 -14 51 -15 40z"/>
<path d="M994 2059 c-3 -5 -2 -8 3 -7 12 4 156 -53 172 -67 11 -11 11 -22 1
-64 -7 -29 -10 -63 -7 -76 3 -17 0 -25 -10 -25 -7 0 -18 -11 -23 -24 -5 -13
-13 -25 -19 -27 -6 -3 -11 -57 -13 -135 -3 -119 -1 -134 17 -153 21 -24 25
-19 -44 -63 -19 -12 -62 -30 -95 -40 -49 -15 -53 -17 -21 -13 65 8 155 59 215
122 30 32 39 43 20 25 -36 -32 -64 -40 -75 -22 -4 6 -6 67 -6 135 1 111 4 128
21 145 11 11 20 24 20 28 0 5 15 16 33 25 19 10 23 15 10 11 -27 -6 -28 -1
-12 79 9 42 9 60 1 70 -9 11 -3 18 28 36 41 23 69 22 90 -4 9 -11 1 -28 -44
-84 -59 -74 -72 -100 -31 -61 14 13 25 28 25 33 0 6 16 29 35 53 29 35 34 47
26 63 -16 30 -82 44 -96 21 -4 -6 -10 -8 -15 -5 -5 3 -14 -3 -19 -14 -11 -19
-13 -19 -96 14 -47 18 -88 29 -91 24z"/>
<path d="M4686 2020 c4 -19 11 -44 15 -55 6 -14 7 -9 3 15 -4 19 -11 44 -15
55 -6 14 -7 9 -3 -15z"/>
<path d="M3766 1955 c-9 -26 -7 -32 5 -12 6 10 9 21 6 23 -2 3 -7 -2 -11 -11z"/>
<path d="M950 1931 c73 -27 159 -51 115 -32 -83 36 -153 61 -170 61 -11 -1 14
-14 55 -29z"/>
<path d="M4468 1925 c2 -14 8 -28 13 -31 10 -6 11 2 3 34 -9 30 -22 28 -16 -3z"/>
<path d="M766 1931 c-3 -4 6 -6 19 -3 14 2 25 6 25 8 0 8 -39 4 -44 -5z"/>
<path d="M2702 1910 c-1 -14 3 -43 7 -65 6 -26 9 -31 9 -15 1 14 -3 43 -7 65
-6 26 -9 31 -9 15z"/>
<path d="M1099 1835 c-10 -33 -19 -45 -34 -46 -15 -1 -16 -2 -4 -6 11 -3 15
-11 12 -26 -3 -15 0 -12 10 8 27 55 47 115 38 115 -5 0 -15 -20 -22 -45z"/>
<path d="M2837 1755 c3 -38 7 -72 9 -74 7 -8 3 64 -6 104 -7 31 -7 24 -3 -30z"/>
<path d="M651 1794 c0 -11 3 -14 6 -6 3 7 2 16 -1 19 -3 4 -6 -2 -5 -13z"/>
<path d="M2723 1750 c0 -30 2 -43 4 -27 2 15 2 39 0 55 -2 15 -4 2 -4 -28z"/>
<path d="M3711 1773 c0 -17 -4 -40 -7 -50 -3 -10 2 -4 12 12 9 17 24 39 33 50
16 20 16 20 -6 2 -21 -18 -21 -18 -26 0 -3 10 -5 5 -6 -14z"/>
<path d="M643 1735 c0 -22 2 -30 4 -17 2 12 2 30 0 40 -3 9 -5 -1 -4 -23z"/>
<path d="M1247 1686 c4 -79 15 -136 26 -136 2 0 0 21 -5 48 -4 26 -12 76 -17
112 -9 62 -9 61 -4 -24z"/>
<path d="M1187 1753 c-13 -12 -7 -60 14 -128 11 -37 22 -65 25 -63 2 3 -2 24
-11 47 -8 23 -17 64 -21 90 -5 43 -4 50 12 54 14 3 15 5 3 6 -9 0 -19 -2 -22
-6z"/>
<path d="M3911 1733 c-1 -6 -4 -20 -7 -30 -5 -17 -5 -17 6 0 6 10 9 23 6 30
-3 9 -5 9 -5 0z"/>
<path d="M943 1670 c0 -36 2 -50 4 -32 2 17 2 47 0 65 -2 17 -4 3 -4 -33z"/>
<path d="M2732 1598 c-2 -88 -5 -95 -31 -79 -9 6 -24 5 -39 -2 -21 -10 -27 -8
-47 16 -39 50 -173 46 -183 -6 -2 -11 7 -21 25 -29 15 -7 30 -13 31 -14 2 -1
-19 -35 -47 -75 -53 -76 -60 -99 -37 -119 19 -15 59 3 135 61 46 35 55 39 63
25 5 -9 17 -16 27 -16 18 0 62 52 71 84 10 37 29 28 33 -16 l4 -43 1 43 c1 23
7 42 12 42 6 0 10 -6 10 -13 0 -16 82 -8 116 11 12 6 37 9 57 5 27 -4 45 0 71
17 60 36 37 83 -24 50 -14 -7 -25 -7 -39 2 -16 10 -28 7 -69 -14 -34 -18 -53
-23 -60 -16 -6 6 -21 12 -34 13 -13 1 -26 3 -30 4 -4 0 -9 36 -11 79 l-3 77
-2 -87z m-187 -172 c-38 -31 -43 -26 -15 14 16 23 25 29 34 20 8 -8 3 -17 -19
-34z"/>
<path d="M633 1635 c0 -22 2 -30 4 -17 2 12 2 30 0 40 -3 9 -5 -1 -4 -23z"/>
<path d="M2853 1635 c0 -22 2 -30 4 -17 2 12 2 30 0 40 -3 9 -5 -1 -4 -23z"/>
<path d="M3750 1649 c-7 -11 -10 -23 -7 -25 2 -2 9 7 15 21 14 30 7 33 -8 4z"/>
<path d="M2163 1625 c0 -22 2 -30 4 -17 2 12 2 30 0 40 -3 9 -5 -1 -4 -23z"/>
<path d="M1290 1605 c0 -5 5 -17 10 -25 5 -8 10 -10 10 -5 0 6 -5 17 -10 25
-5 8 -10 11 -10 5z"/>
<path d="M3276 1579 c-23 -18 -40 -22 -87 -20 -46 2 -61 -2 -65 -13 -3 -9 -11
-16 -16 -16 -6 0 -4 7 3 16 12 14 11 16 -6 13 -11 -3 -21 -12 -23 -21 -4 -22
19 -28 123 -32 44 -2 88 -7 99 -11 13 -6 21 -3 28 8 4 9 15 14 23 11 9 -4 15
0 15 9 0 8 7 20 15 27 18 15 19 7 3 -23 -10 -20 -10 -21 6 -8 20 17 16 65 -6
69 -10 2 -19 -6 -23 -19 l-7 -21 -12 23 c-16 32 -37 34 -70 8z"/>
<path d="M2070 1581 c0 -5 5 -13 10 -16 6 -3 10 -2 10 4 0 5 -4 13 -10 16 -5
3 -10 2 -10 -4z"/>
<path d="M942 1535 c-2 -49 11 -76 30 -57 9 9 9 12 -4 12 -12 0 -18 11 -21 43
l-4 42 -1 -40z"/>
<path d="M2173 1535 c0 -22 2 -30 4 -17 2 12 2 30 0 40 -3 9 -5 -1 -4 -23z"/>
<path d="M2061 1544 c0 -11 3 -14 6 -6 3 7 2 16 -1 19 -3 4 -6 -2 -5 -13z"/>
<path d="M3671 1544 c0 -11 3 -14 6 -6 3 7 2 16 -1 19 -3 4 -6 -2 -5 -13z"/>
<path d="M623 1490 c0 -25 2 -35 4 -22 2 12 2 32 0 45 -2 12 -4 2 -4 -23z"/>
<path d="M2037 1442 c-9 -42 -21 -111 -27 -152 -6 -41 -15 -90 -21 -109 l-11
-33 -31 31 c-17 16 -27 34 -23 38 4 4 19 -5 32 -20 13 -15 24 -23 24 -17 0 13
-41 55 -59 61 -17 6 1 44 55 115 32 43 33 45 8 22 -16 -15 -43 -50 -59 -78
-17 -27 -36 -50 -42 -50 -40 0 -185 -187 -229 -293 -10 -26 -22 -47 -26 -47
-5 0 -8 -5 -8 -11 0 -5 4 -8 9 -5 16 11 264 -47 289 -67 8 -6 25 -31 38 -56
14 -25 23 -38 20 -29 -3 10 -9 26 -12 35 -4 13 -2 12 7 -2 6 -11 20 -29 29
-40 10 -11 28 -64 40 -118 14 -58 30 -106 41 -116 15 -14 41 -93 63 -193 3
-15 15 -29 25 -33 11 -3 21 -14 23 -23 2 -9 9 6 17 33 7 28 17 61 22 75 9 24
9 24 -7 5 -16 -19 -16 -19 -11 15 4 19 2 55 -3 80 -24 114 -39 212 -46 294 -6
75 -5 88 7 81 11 -6 12 -5 2 6 -7 7 -13 26 -13 41 0 31 -5 34 -25 14 -12 -12
-12 -16 0 -26 11 -9 15 -33 14 -89 l0 -76 -14 40 c-7 22 -28 90 -47 150 -19
61 -47 133 -61 162 -28 53 -34 88 -18 97 4 3 50 -53 102 -124 51 -71 95 -127
97 -125 3 3 -73 112 -168 240 l-30 40 25 164 c14 90 24 165 22 167 -2 2 -11
-31 -20 -74z m-337 -539 c0 -2 -9 -3 -20 -3 -13 0 -20 7 -20 20 0 19 1 19 20
3 11 -10 20 -19 20 -20z m384 -368 c4 -20 3 -25 -3 -15 -5 8 -11 31 -15 50 -7
41 7 13 18 -35z"/>
<path d="M4045 1490 c-22 -4 12 -5 75 -2 63 3 117 6 119 8 7 7 -152 1 -194 -6z"/>
<path d="M2183 1430 c4 -36 16 -180 27 -320 25 -320 41 -412 77 -442 14 -12
14 -10 -1 19 -26 52 -43 147 -55 308 -18 243 -42 489 -48 495 -3 3 -3 -24 0
-60z"/>
<path d="M3692 1463 c-17 -33 -22 -87 -23 -255 -1 -162 8 -217 32 -202 6 4 5
12 -3 21 -17 21 -18 385 0 426 13 30 8 37 -6 10z"/>
<path d="M3930 1470 c-20 -6 -21 -8 -5 -8 11 0 34 4 50 8 27 7 27 8 5 8 -14 0
-36 -4 -50 -8z"/>
<path d="M2072 1415 c-17 -37 -14 -45 4 -12 9 16 14 31 11 33 -2 2 -9 -7 -15
-21z"/>
<path d="M2773 1360 c0 -41 2 -58 4 -37 2 20 2 54 0 75 -2 20 -4 3 -4 -38z"/>
<path d="M3800 1383 c-23 -20 -46 -46 -52 -57 -6 -12 15 4 46 34 31 30 56 56
56 57 0 9 -14 -1 -50 -34z"/>
<path d="M620 1401 c0 -6 19 -25 43 -42 46 -34 97 -62 97 -55 0 3 -14 13 -31
21 -16 9 -48 32 -70 52 -21 19 -39 30 -39 24z"/>
<path d="M1330 1395 c0 -3 8 -9 18 -13 10 -4 52 -32 94 -62 60 -43 76 -59 71
-74 -4 -14 -1 -18 11 -13 8 3 22 -1 31 -9 9 -9 15 -11 15 -4 0 14 -21 32 -135
115 -83 61 -105 73 -105 60z"/>
<path d="M2720 1328 c-3 -31 -1 -53 3 -49 5 5 7 30 5 57 l-3 49 -5 -57z"/>
<path d="M3910 1360 c0 -5 5 -10 10 -10 6 0 10 5 10 10 0 6 -4 10 -10 10 -5 0
-10 -4 -10 -10z"/>
<path d="M666 1258 c-12 -56 -15 -112 -7 -98 11 18 25 120 17 120 -3 0 -8 -10
-10 -22z"/>
<path d="M2784 1135 c0 -82 2 -115 3 -72 2 43 2 110 0 150 -1 40 -3 5 -3 -78z"/>
<path d="M840 1260 c8 -5 20 -10 25 -10 6 0 3 5 -5 10 -8 5 -19 10 -25 10 -5
0 -3 -5 5 -10z"/>
<path d="M1551 1184 c0 -11 3 -14 6 -6 3 7 2 16 -1 19 -3 4 -6 -2 -5 -13z"/>
<path d="M627 1068 c-17 -74 -22 -125 -19 -188 2 -28 13 -45 63 -92 39 -36 58
-61 53 -69 -4 -8 -3 -10 5 -5 6 4 18 2 26 -4 26 -22 75 -117 105 -202 36 -103
39 -89 4 18 -36 113 -66 159 -157 246 l-81 78 -4 64 c-3 39 2 95 13 141 9 42
15 79 12 81 -2 2 -11 -28 -20 -68z"/>
<path d="M2854 920 c0 -52 1 -74 3 -47 2 26 2 68 0 95 -2 26 -3 4 -3 -48z"/>
<path d="M2782 930 c0 -19 2 -27 5 -17 2 9 2 25 0 35 -3 9 -5 1 -5 -18z"/>
<path d="M2784 765 c0 -71 1 -99 3 -62 2 37 2 96 0 130 -2 34 -3 4 -3 -68z"/>
<path d="M4025 805 c40 -33 188 -63 170 -35 -3 6 -25 10 -49 10 -26 0 -62 10
-92 25 -61 31 -67 31 -29 0z"/>
<path d="M2844 635 c0 -104 2 -146 3 -92 2 54 2 139 0 190 -1 51 -3 7 -3 -98z"/>
<path d="M1611 794 c0 -11 3 -14 6 -6 3 7 2 16 -1 19 -3 4 -6 -2 -5 -13z"/>
<path d="M1588 703 c-7 -32 -13 -105 -13 -163 1 -88 5 -114 25 -160 32 -75 93
-163 158 -232 53 -56 72 -69 72 -48 0 6 -7 10 -15 10 -21 0 -147 161 -185 236
-47 92 -59 189 -38 312 19 109 17 134 -4 45z"/>
<path d="M713 645 c0 -27 2 -38 4 -22 2 15 2 37 0 50 -2 12 -4 0 -4 -28z"/>
<path d="M1501 664 c0 -11 3 -14 6 -6 3 7 2 16 -1 19 -3 4 -6 -2 -5 -13z"/>
<path d="M1682 630 c44 -29 121 -106 166 -165 14 -18 19 -21 12 -8 -25 53
-183 203 -213 203 -6 0 10 -13 35 -30z"/>
<path d="M2773 560 c0 -36 2 -50 4 -32 2 17 2 47 0 65 -2 17 -4 3 -4 -33z"/>
<path d="M1471 579 c-6 -18 -9 -34 -7 -36 2 -2 9 10 15 28 6 18 9 34 7 36 -2
2 -9 -10 -15 -28z"/>
<path d="M4098 593 c6 -2 18 -2 25 0 6 3 1 5 -13 5 -14 0 -19 -2 -12 -5z"/>
<path d="M4168 593 c6 -2 18 -2 25 0 6 3 1 5 -13 5 -14 0 -19 -2 -12 -5z"/>
<path d="M4303 593 c9 -2 25 -2 35 0 9 3 1 5 -18 5 -19 0 -27 -2 -17 -5z"/>
<path d="M4447 593 c-12 -12 -7 -23 11 -23 14 0 14 2 3 9 -11 7 -10 10 5 14
14 3 15 5 3 6 -9 0 -19 -2 -22 -6z"/>
<path d="M722 570 c0 -14 2 -19 5 -12 2 6 2 18 0 25 -3 6 -5 1 -5 -13z"/>
<path d="M4008 583 c7 -3 16 -2 19 1 4 3 -2 6 -13 5 -11 0 -14 -3 -6 -6z"/>
<path d="M4398 583 c6 -2 18 -2 25 0 6 3 1 5 -13 5 -14 0 -19 -2 -12 -5z"/>
<path d="M4490 586 c0 -2 8 -10 18 -17 15 -13 16 -12 3 4 -13 16 -21 21 -21
13z"/>
<path d="M4451 544 c0 -11 3 -14 6 -6 3 7 2 16 -1 19 -3 4 -6 -2 -5 -13z"/>
<path d="M625 529 c-4 -6 -5 -12 -2 -15 2 -3 7 2 10 11 7 17 1 20 -8 4z"/>
<path d="M4678 513 c7 -3 16 -2 19 1 4 3 -2 6 -13 5 -11 0 -14 -3 -6 -6z"/>
<path d="M1436 485 c-9 -26 -7 -32 5 -12 6 10 9 21 6 23 -2 3 -7 -2 -11 -11z"/>
<path d="M631 480 c0 -8 4 -24 9 -35 5 -13 9 -14 9 -5 0 8 -4 24 -9 35 -5 13
-9 14 -9 5z"/>
<path d="M2763 430 c0 -36 2 -50 4 -32 2 17 2 47 0 65 -2 17 -4 3 -4 -33z"/>
<path d="M4810 470 c8 -5 20 -10 25 -10 6 0 3 5 -5 10 -8 5 -19 10 -25 10 -5
0 -3 -5 5 -10z"/>
<path d="M2012 440 c0 -14 2 -19 5 -12 2 6 2 18 0 25 -3 6 -5 1 -5 -13z"/>
<path d="M3771 444 c0 -11 3 -14 6 -6 3 7 2 16 -1 19 -3 4 -6 -2 -5 -13z"/>
<path d="M4305 450 c-25 -11 1 -11 35 0 20 6 21 8 5 8 -11 0 -29 -3 -40 -8z"/>
<path d="M4850 456 c0 -2 7 -7 16 -10 8 -3 12 -2 9 4 -6 10 -25 14 -25 6z"/>
<path d="M1390 367 c-19 -45 -58 -133 -87 -196 -29 -63 -51 -117 -48 -120 3
-3 22 13 43 34 20 22 25 29 10 15 -33 -28 -36 -14 -9 38 33 64 133 304 129
308 -3 2 -20 -33 -38 -79z"/>
<path d="M2832 395 c-3 -71 -28 -227 -51 -315 -10 -41 -18 -76 -16 -78 1 -1
41 14 89 34 47 21 85 39 83 41 -2 2 -37 -10 -77 -27 -40 -17 -75 -29 -77 -27
-2 2 6 39 16 83 26 103 43 239 38 294 l-4 45 -1 -50z"/>
<path d="M4238 433 c7 -3 16 -2 19 1 4 3 -2 6 -13 5 -11 0 -14 -3 -6 -6z"/>
<path d="M4908 422 c9 -10 19 -17 21 -16 6 5 -20 34 -30 34 -5 0 -1 -8 9 -18z"/>
<path d="M1880 410 c6 -11 13 -20 16 -20 2 0 0 9 -6 20 -6 11 -13 20 -16 20
-2 0 0 -9 6 -20z"/>
<path d="M650 415 c0 -5 5 -17 10 -25 5 -8 10 -10 10 -5 0 6 -5 17 -10 25 -5
8 -10 11 -10 5z"/>
<path d="M3761 404 c0 -11 3 -14 6 -6 3 7 2 16 -1 19 -3 4 -6 -2 -5 -13z"/>
<path d="M2021 384 c0 -11 3 -14 6 -6 3 7 2 16 -1 19 -3 4 -6 -2 -5 -13z"/>
<path d="M670 365 c0 -5 5 -17 10 -25 5 -8 10 -10 10 -5 0 6 -5 17 -10 25 -5
8 -10 11 -10 5z"/>
<path d="M4010 360 c-8 -5 -10 -10 -5 -10 6 0 17 5 25 10 8 5 11 10 5 10 -5 0
-17 -5 -25 -10z"/>
<path d="M1163 330 c-18 -11 -33 -22 -33 -25 0 -2 16 5 35 16 19 12 35 23 35
25 0 6 -3 5 -37 -16z"/>
<path d="M3940 330 c-8 -5 -10 -10 -5 -10 6 0 17 5 25 10 8 5 11 10 5 10 -5 0
-17 -5 -25 -10z"/>
<path d="M2031 314 c0 -11 3 -14 6 -6 3 7 2 16 -1 19 -3 4 -6 -2 -5 -13z"/>
<path d="M690 315 c0 -5 5 -17 10 -25 5 -8 10 -10 10 -5 0 6 -5 17 -10 25 -5
8 -10 11 -10 5z"/>
<path d="M3880 305 c-14 -8 -20 -14 -15 -14 6 0 21 6 35 14 14 8 21 14 15 14
-5 0 -21 -6 -35 -14z"/>
<path d="M4308 293 c7 -3 16 -2 19 1 4 3 -2 6 -13 5 -11 0 -14 -3 -6 -6z"/>
<path d="M3830 280 c-9 -6 -10 -10 -3 -10 6 0 15 5 18 10 8 12 4 12 -15 0z"/>
<path d="M4418 283 c6 -2 18 -2 25 0 6 3 1 5 -13 5 -14 0 -19 -2 -12 -5z"/>
<path d="M710 265 c0 -5 5 -17 10 -25 5 -8 10 -10 10 -5 0 6 -5 17 -10 25 -5
8 -10 11 -10 5z"/>
<path d="M2042 250 c0 -14 2 -19 5 -12 2 6 2 18 0 25 -3 6 -5 1 -5 -13z"/>
<path d="M3718 243 c-6 -23 -124 -71 -265 -108 -54 -15 -103 -31 -110 -37 -7
-6 -13 -7 -13 -3 0 4 -7 2 -15 -5 -26 -22 -18 9 24 87 21 40 34 70 28 66 -14
-8 -94 -182 -101 -218 -6 -28 -5 -28 8 5 l14 35 2 -35 2 -35 8 38 c8 43 24 65
34 48 4 -6 19 -11 34 -10 l27 1 -25 7 c-34 9 -18 18 90 47 102 27 235 77 295
111 40 23 42 33 3 12 -15 -8 -22 -8 -28 1 -5 8 -9 6 -12 -7z"/>
<path d="M1962 200 c0 -14 2 -19 5 -12 2 6 2 18 0 25 -3 6 -5 1 -5 -13z"/>
<path d="M3200 196 c0 -20 -32 -36 -153 -76 -54 -17 -97 -34 -95 -36 4 -3 134
36 206 62 43 16 71 47 52 59 -5 3 -10 -1 -10 -9z"/>
<path d="M740 195 c0 -5 5 -17 10 -25 5 -8 10 -10 10 -5 0 6 -5 17 -10 25 -5
8 -10 11 -10 5z"/>
<path d="M2051 184 c0 -11 3 -14 6 -6 3 7 2 16 -1 19 -3 4 -6 -2 -5 -13z"/>
<path d="M2143 98 c-17 -55 -27 -96 -23 -91 10 10 64 182 59 188 -3 2 -18 -41
-36 -97z"/>
<path d="M4591 133 c-7 -40 -11 -80 -8 -90 3 -11 5 -8 6 10 0 16 6 48 12 72 6
23 9 51 7 61 -2 11 -10 -13 -17 -53z"/>
<path d="M1972 103 c-1 -39 -5 -80 -8 -90 -5 -13 -4 -15 5 -7 8 7 11 38 8 90
l-3 79 -2 -72z"/>
<path d="M1354 138 l-19 -23 23 19 c12 11 22 21 22 23 0 8 -8 2 -26 -19z"/>
<path d="M774 120 c9 -32 39 -101 43 -97 2 3 -8 29 -22 58 -14 30 -23 47 -21
39z"/>
<path d="M3652 75 c-12 -25 -20 -45 -17 -45 7 0 47 81 43 86 -3 2 -14 -17 -26
-41z"/>
<path d="M4664 50 c-15 -22 -25 -42 -23 -44 2 -2 16 16 31 40 34 55 28 58 -8
4z"/>
<path d="M5033 50 c0 -25 2 -35 4 -22 2 12 2 32 0 45 -2 12 -4 2 -4 -23z"/>
<path d="M2694 58 c-37 -63 -37 -63 -11 -33 25 28 33 45 23 45 -3 0 -8 -6 -12
-12z"/>
<path d="M3741 14 c0 -11 3 -14 6 -6 3 7 2 16 -1 19 -3 4 -6 -2 -5 -13z"/>
</g>
</svg>
