<?xml version="1.0" standalone="no"?>
<!DOCTYPE svg PUBLIC "-//W3C//DTD SVG 20010904//EN"
 "http://www.w3.org/TR/2001/REC-SVG-20010904/DTD/svg10.dtd">
<svg version="1.0" xmlns="http://www.w3.org/2000/svg"
 width="533.000000pt" height="533.000000pt" viewBox="0 0 533.000000 533.000000"
 preserveAspectRatio="xMidYMid meet">
<metadata>
Created by potrace 1.14, written by Peter Selinger 2001-2017
</metadata>
<g transform="translate(0.000000,533.000000) scale(0.100000,-0.100000)"
fill="#000000" stroke="none">
<path d="M2166 4813 c-2 -2 -18 -6 -34 -8 -17 -2 -50 -9 -74 -16 -24 -7 -48
-13 -55 -15 -12 -2 -33 -12 -110 -53 -23 -12 -51 -23 -64 -24 -22 -2 -169
-131 -169 -149 0 -6 -11 -20 -24 -32 -29 -25 -156 -201 -156 -216 0 -5 -3 -10
-8 -10 -12 0 -39 -72 -46 -125 -4 -27 -9 -59 -12 -70 -8 -33 -15 -118 -14
-150 1 -16 2 -34 1 -40 -6 -101 -8 -202 -4 -208 3 -5 6 -30 8 -55 5 -78 17
-207 20 -210 1 -2 9 4 17 12 12 11 18 12 28 3 10 -10 10 -8 1 10 -15 30 -4 75
18 71 9 -2 16 -13 15 -26 0 -12 3 -22 8 -22 4 0 7 -3 6 -7 -8 -23 105 -183
128 -183 10 0 -1 50 -20 93 -21 49 -2 46 37 -5 25 -33 120 -111 139 -114 5 -1
9 -2 11 -4 1 -1 13 -3 27 -6 69 -10 90 -11 90 -3 0 4 6 6 14 3 17 -6 31 12 16
21 -6 4 -8 10 -5 15 3 5 1 11 -5 15 -13 8 -13 45 0 45 6 0 19 -9 30 -20 11
-11 20 -17 20 -14 0 3 15 -9 33 -28 19 -18 55 -52 80 -74 l47 -42 -26 -58
c-28 -65 -26 -100 9 -113 12 -5 34 -20 49 -34 16 -14 35 -30 43 -34 9 -5 17
-20 20 -34 10 -49 27 -75 65 -99 21 -13 38 -26 38 -29 -2 -9 12 -42 37 -92 13
-25 27 -64 31 -85 3 -21 11 -44 16 -51 15 -19 -3 -42 -117 -149 -88 -81 -175
-186 -175 -210 0 -2 -9 -14 -20 -26 -41 -44 -61 -107 -61 -187 0 -42 -4 -89
-10 -106 -5 -16 -14 -56 -20 -87 -6 -34 -16 -58 -23 -58 -15 0 -76 -62 -76
-78 0 -7 -4 -12 -9 -12 -5 0 -14 -14 -21 -30 -7 -17 -15 -28 -18 -26 -8 9 -98
-60 -151 -116 -41 -43 -48 -52 -61 -89 -21 -57 -38 -75 -58 -63 -36 23 -68
169 -48 216 9 21 -6 36 -139 133 -163 120 -174 129 -170 142 2 7 0 15 -5 18
-19 11 26 75 53 75 5 0 -2 15 -16 34 -30 38 -41 74 -41 134 0 23 -4 42 -9 42
-5 0 -7 9 -4 20 3 11 1 20 -4 20 -14 0 -6 59 9 65 7 3 10 9 7 15 -3 6 1 13 9
16 9 3 16 11 16 16 0 5 9 23 20 39 26 35 14 66 -28 75 -66 15 -63 10 -56 77 3
34 11 82 16 107 9 43 15 78 17 91 1 3 19 34 41 68 45 70 57 128 40 192 -11 41
-36 73 -51 64 -4 -3 -18 -38 -30 -78 -11 -40 -27 -92 -36 -117 -8 -25 -16 -52
-18 -60 -5 -20 -54 -191 -61 -210 -3 -8 -5 -16 -4 -18 0 -1 -13 -14 -29 -27
-37 -31 -61 -32 -62 -2 -2 46 -14 147 -23 194 -3 12 -7 48 -11 80 -11 103 -14
117 -26 161 -6 24 -21 49 -33 57 -24 17 -56 20 -56 5 0 -16 -2 -23 -11 -46 -4
-12 -5 -25 -1 -28 3 -4 7 -14 7 -24 1 -9 5 -51 9 -92 4 -41 9 -88 11 -105 3
-16 6 -57 8 -90 1 -33 7 -63 12 -67 6 -5 6 -8 -2 -8 -6 0 -10 -9 -8 -20 3 -14
-9 -32 -36 -57 -21 -20 -39 -42 -39 -49 0 -6 -6 -14 -14 -17 -8 -3 -24 -26
-37 -51 -12 -25 -26 -46 -31 -46 -4 0 -7 -3 -6 -7 4 -15 -23 -53 -37 -53 -8 0
-15 -5 -15 -11 0 -5 -4 -8 -9 -5 -12 8 -39 -36 -47 -76 -12 -64 -15 -104 -19
-275 -1 -94 -6 -177 -10 -183 -20 -32 -22 -413 -2 -460 16 -40 23 -196 15
-340 -1 -14 1 -37 5 -51 5 -25 72 -198 102 -264 8 -16 30 -68 49 -115 l34 -85
2113 -3 c1162 -1 2110 0 2107 3 -10 11 12 95 35 132 20 33 56 132 61 170 1 7
5 15 8 19 4 3 4 12 2 19 -3 7 -1 16 5 20 6 3 11 14 11 23 0 9 6 29 14 44 8 15
17 40 21 57 4 17 11 33 16 36 5 4 9 15 9 25 0 10 3 20 8 22 10 4 59 99 64 123
1 11 6 23 11 26 4 3 -2 15 -13 27 -12 12 -18 22 -15 22 3 0 -1 15 -8 32 -8 18
-20 57 -26 85 -7 29 -18 53 -24 53 -6 0 -8 3 -4 6 6 6 -36 94 -67 139 -12 17
-38 45 -58 64 -21 19 -38 38 -38 44 0 5 -17 23 -37 40 -76 65 -104 95 -108
116 -5 25 -37 81 -46 81 -11 0 -21 50 -25 125 -2 39 -6 88 -8 110 -14 129 -17
155 -22 176 -2 13 -7 40 -10 59 -12 75 -55 253 -74 304 -20 52 -56 97 -75 93
-5 -1 -16 18 -24 43 -21 68 -50 130 -61 130 -5 0 -10 6 -10 13 0 7 -9 23 -20
35 -11 12 -20 26 -20 32 0 5 -11 10 -25 10 -14 0 -25 5 -25 10 0 6 -7 10 -15
10 -8 0 -15 4 -15 8 0 5 -19 15 -42 22 -24 7 -54 20 -68 29 -14 9 -38 23 -53
31 -16 8 -38 24 -50 35 -31 30 -126 99 -163 118 -17 9 -37 30 -44 47 -9 21
-29 39 -61 56 -27 13 -49 21 -49 18 0 -4 -6 -2 -12 3 -12 9 -59 25 -81 27 -5
1 -15 10 -23 20 -8 11 -14 17 -14 13 0 -4 -9 -3 -20 3 -11 6 -20 16 -20 23 0
21 -82 68 -115 65 -27 -2 -44 11 -131 99 -54 55 -118 112 -141 127 -42 26 -56
48 -83 131 -7 22 -16 49 -20 60 -5 11 -14 36 -21 55 -7 19 -20 44 -29 55 -10
11 -25 35 -34 53 -9 17 -19 32 -22 32 -2 0 0 -8 5 -18 9 -17 6 -18 -47 -15
-85 6 -86 6 -103 -1 -12 -5 -20 2 -30 26 -7 18 -19 39 -26 46 -7 7 -15 29 -19
49 -5 28 -3 39 11 49 15 11 17 22 10 71 -4 32 -8 76 -9 99 -1 29 -12 55 -39
93 -64 89 -180 212 -232 246 -47 30 -171 82 -228 95 -100 22 -127 31 -127 39
0 9 -125 12 -134 4z m-656 -1128 c9 0 16 -11 18 -26 2 -21 -2 -28 -23 -33 -33
-8 -41 -3 -49 30 -7 28 9 48 29 36 5 -4 17 -7 25 -7z m704 -2770 c15 -43 10
-86 -9 -78 -8 2 -13 12 -13 21 1 9 -3 40 -7 67 -9 58 8 53 29 -10z"/>
</g>
</svg>
