<?xml version="1.0" standalone="no"?>
<!DOCTYPE svg PUBLIC "-//W3C//DTD SVG 20010904//EN"
 "http://www.w3.org/TR/2001/REC-SVG-20010904/DTD/svg10.dtd">
<svg version="1.0" xmlns="http://www.w3.org/2000/svg"
 width="225.000000pt" height="225.000000pt" viewBox="0 0 225.000000 225.000000"
 preserveAspectRatio="xMidYMid meet">
<metadata>
Created by potrace 1.14, written by Peter Selinger 2001-2017
</metadata>
<g transform="translate(0.000000,225.000000) scale(0.100000,-0.100000)"
fill="#000000" stroke="none">
<path d="M0 1125 l0 -1125 1125 0 1125 0 0 1005 0 1005 -25 0 c-18 0 -25 5
-25 20 0 11 5 20 10 20 6 0 10 9 10 20 0 11 5 20 10 20 6 0 1 9 -10 20 -26 26
-25 36 3 44 18 5 20 8 7 16 -13 8 -12 10 3 10 13 0 17 8 17 35 l0 35 -100 0
c-96 0 -101 -1 -109 -23 -5 -13 -7 -35 -4 -49 4 -20 0 -26 -19 -31 -12 -3 -40
-10 -61 -15 -35 -9 -38 -8 -43 15 -4 13 -1 36 5 50 11 23 10 25 -7 21 -11 -3
-23 2 -30 13 -11 17 -50 18 -826 19 -770 0 -815 -1 -819 -17 -4 -17 -5 -17 -6
0 -1 15 -14 17 -116 17 l-115 0 0 -1125z m1185 1060 c33 -9 76 -26 95 -39 19
-12 53 -26 74 -29 62 -10 142 -54 207 -115 98 -90 169 -260 169 -402 0 -80
-62 -270 -79 -242 -4 7 -12 -8 -19 -32 -6 -24 -23 -57 -37 -73 l-25 -28 14 36
c32 78 39 236 17 351 -8 38 -9 33 -11 -47 -1 -49 -5 -99 -10 -110 -8 -18 -9
-18 -10 5 0 14 -12 57 -25 95 l-23 70 -2 -45 c-1 -42 -2 -43 -12 -17 -14 39
-28 33 -28 -11 0 -81 -68 -264 -119 -322 -22 -24 -22 -24 -11 -2 21 42 3 34
-23 -10 -14 -24 -35 -52 -48 -63 -22 -20 -22 -20 -15 0 10 26 46 158 46 165
-1 3 -10 -12 -21 -33 -28 -54 -34 -40 -10 24 26 70 41 157 41 233 0 76 -7 69
-20 -22 -9 -65 -38 -158 -46 -149 -2 2 1 18 6 37 5 19 8 35 6 37 -2 3 -14 -30
-27 -72 -12 -42 -25 -78 -28 -80 -10 -5 8 175 20 213 6 18 9 35 7 38 -3 2 -13
-22 -22 -54 -21 -66 -56 -136 -87 -172 -11 -14 -18 -20 -15 -13 9 17 46 193
45 212 0 9 -6 -6 -13 -34 -12 -51 -60 -147 -82 -165 -22 -19 -26 51 -5 112 25
73 41 181 40 265 l-2 68 -8 -82 c-15 -163 -60 -277 -145 -370 -41 -44 -44 -46
-45 -23 0 23 -1 23 -9 5 -15 -34 -11 -43 15 -40 14 1 28 -2 32 -8 3 -6 2 -7
-4 -4 -5 3 -10 0 -10 -7 0 -11 4 -12 20 -3 15 9 21 9 24 0 3 -9 10 -10 24 -3
10 6 19 8 19 5 0 -4 6 -3 13 2 24 15 57 14 57 -2 0 -20 49 -20 56 0 4 8 13 15
21 15 8 0 11 5 7 12 -5 7 -2 9 9 5 14 -5 62 23 79 48 13 18 9 -31 -7 -75 -13
-38 -13 -41 0 -30 30 25 30 1 1 -71 -5 -12 -1 -15 14 -14 25 2 82 56 118 112
15 24 30 43 35 43 11 0 9 -7 -13 -50 -24 -46 -26 -70 -6 -70 17 0 56 46 56 65
0 7 7 15 15 19 9 3 15 18 15 36 0 19 5 30 14 30 23 0 31 59 12 78 -13 14 -20
14 -36 4 -17 -11 -18 -10 -11 11 13 34 38 32 57 -5 24 -47 21 -99 -11 -163
-31 -64 -46 -73 -196 -119 -86 -26 -86 -26 -280 -16 -107 6 -210 12 -229 14
-19 3 -40 0 -46 -5 -25 -20 -98 71 -110 137 -7 38 -6 39 13 22 11 -10 31 -18
46 -18 19 0 25 -4 21 -15 -8 -20 22 -31 42 -15 11 10 18 10 26 2 21 -21 26
-13 21 27 -3 23 -1 41 6 45 7 5 8 1 4 -10 -4 -11 -3 -15 4 -11 7 5 10 -1 7
-15 -2 -13 -1 -17 2 -10 4 9 10 10 19 2 9 -8 12 -4 13 17 2 75 6 116 10 98 4
-15 8 -11 18 20 l14 40 -5 -55 c-7 -89 12 -14 25 99 6 53 13 111 15 130 5 43
-1 36 -31 -36 -14 -32 -23 -46 -21 -31 2 15 1 25 -3 23 -9 -6 -26 -99 -36
-200 -8 -81 -16 -70 -40 50 l-13 70 4 -70 c3 -38 1 -86 -3 -105 l-9 -35 -16
54 c-18 57 -24 238 -8 213 17 -27 19 42 4 103 -11 41 -14 87 -11 145 l5 85
-14 -50 c-33 -124 -45 -163 -64 -207 -24 -58 -34 -178 -21 -238 15 -61 7 -63
-20 -4 -14 31 -24 79 -28 134 -7 82 -7 80 -10 -55 -2 -77 -2 -149 -1 -159 1
-18 0 -19 -18 -2 -10 9 -34 47 -52 83 -33 65 -34 71 -34 186 0 65 -3 108 -7
95 -10 -37 -9 -274 2 -302 15 -40 3 -31 -21 15 -11 23 -24 69 -28 103 -7 52
-9 55 -10 20 0 -23 8 -70 19 -104 11 -34 20 -72 19 -84 -1 -37 -41 64 -49 124
l-7 55 -2 -50 c-1 -29 -10 -65 -22 -85 -19 -33 -20 -33 -14 -7 3 16 12 97 20
180 8 83 22 176 31 206 91 313 458 541 749 466z m-951 -117 c-4 -21 -2 -49 4
-61 16 -33 21 -88 10 -119 -6 -17 -6 -33 1 -45 5 -11 7 -38 4 -61 -5 -34 -9
-41 -23 -37 -9 3 -23 -1 -29 -9 -27 -33 -36 -7 -37 109 -1 98 2 115 15 113 20
-4 24 58 5 77 -18 18 -18 21 7 55 30 40 51 29 43 -22z m1536 -2 c0 -11 -19
-15 -25 -6 -3 5 1 10 9 10 9 0 16 -2 16 -4z m-1543 -398 c-3 -8 -6 -5 -6 6 -1
11 2 17 5 13 3 -3 4 -12 1 -19z m522 -178 c1 -71 -2 -100 -9 -90 -19 29 -11
-10 11 -51 11 -23 18 -43 16 -45 -2 -3 -17 1 -32 8 -24 11 -26 15 -20 52 6 45
7 57 4 197 -2 107 11 154 23 79 3 -25 7 -92 7 -150z m-578 107 c-8 -8 -11 -7
-11 4 0 20 13 34 18 19 3 -7 -1 -17 -7 -23z m54 -110 c1 -39 0 -66 -2 -59 -3
6 -8 10 -12 8 -4 -3 -5 9 -3 26 3 18 0 33 -8 38 -11 7 -11 14 0 39 7 18 15 29
18 26 3 -3 6 -38 7 -78z m125 -67 c6 -11 10 -63 8 -117 -1 -75 3 -109 16 -143
10 -25 19 -55 20 -67 0 -13 4 -23 8 -23 3 0 4 -10 0 -22 -3 -14 -2 -19 6 -14
7 4 12 13 12 20 0 20 100 156 115 156 7 0 36 -5 65 -12 44 -10 55 -18 86 -61
l36 -50 -26 5 c-14 3 -23 1 -20 -3 3 -5 14 -9 25 -9 11 0 22 -7 25 -15 6 -15
-2 -30 -65 -131 -22 -35 -36 -75 -46 -128 -7 -43 -21 -86 -31 -97 -20 -22 -66
-25 -83 -5 -13 16 -11 137 2 129 4 -2 7 3 7 12 0 9 18 37 40 62 21 24 44 60
50 79 6 19 15 35 18 35 4 1 17 3 29 4 12 1 34 12 48 24 l28 21 -29 0 c-15 0
-38 10 -51 22 -25 23 -123 37 -123 17 0 -6 5 -7 10 -4 6 3 10 1 10 -4 0 -6 -6
-11 -13 -11 -7 0 -18 -9 -24 -20 -11 -17 -10 -19 5 -14 14 5 15 4 2 -5 -8 -6
-26 -11 -40 -12 l-25 0 23 -11 c27 -14 30 -58 5 -80 -10 -9 -42 -23 -70 -32
-67 -22 -80 -40 -25 -34 37 3 39 2 30 -15 -5 -10 -7 -21 -4 -24 3 -3 1 -14 -5
-25 -8 -15 -17 -18 -37 -13 l-27 6 28 -27 c38 -36 70 -110 62 -146 -12 -52
-106 -94 -154 -69 -24 13 -29 0 -6 -19 8 -7 15 -22 15 -34 0 -20 -1 -20 -20 4
-11 14 -19 36 -19 50 0 14 -12 81 -28 150 l-28 125 -57 56 c-49 49 -57 63 -63
105 -3 27 -10 76 -14 109 -9 66 -6 85 16 85 19 0 41 -56 49 -123 6 -51 11 -59
59 -101 29 -25 55 -42 59 -39 15 15 3 49 -34 95 -38 49 -40 54 -40 123 0 39
-3 106 -6 148 -6 67 -5 77 9 77 27 0 48 -56 58 -151 10 -96 20 -123 70 -179
l31 -35 -7 45 c-4 25 -14 71 -22 103 -14 49 -14 71 -4 145 16 115 21 132 37
132 7 0 18 -9 24 -20z m677 -46 c-7 -31 -17 -49 -29 -52 -10 -2 -16 -8 -13
-12 3 -5 0 -12 -6 -16 -8 -4 -9 -3 -5 4 4 7 2 12 -4 12 -5 0 6 25 26 55 20 30
38 55 39 55 1 0 -3 -21 -8 -46z m-809 -9 c-3 -3 -9 2 -12 12 -6 14 -5 15 5 6
7 -7 10 -15 7 -18z m978 -61 c-3 -8 -17 -14 -32 -14 -26 0 -27 0 -9 20 10 11
14 20 10 20 -5 0 0 6 11 14 17 13 19 13 22 -5 2 -11 1 -27 -2 -35z m-100 -13
c-3 -5 -17 -11 -31 -13 -20 -4 -23 -3 -14 8 12 15 54 20 45 5z m331 -66 c0 -8
-4 -12 -9 -9 -5 3 -6 10 -3 15 9 13 12 11 12 -6z m-907 -227 c0 -23 -3 -29 -9
-19 -5 7 -7 21 -6 30 5 22 4 21 10 21 3 0 5 -15 5 -32z m219 -76 c6 -12 9 -22
7 -22 -10 0 -36 59 -35 77 0 12 3 9 8 -8 5 -14 14 -35 20 -47z m46 -84 c8 -21
13 -38 10 -38 -5 0 -45 76 -45 87 0 14 19 -13 35 -49z m72 -140 c18 -18 41
-55 52 -81 25 -58 25 -58 6 -51 -8 3 -19 22 -26 42 -6 21 -30 56 -52 80 -26
26 -35 42 -26 42 8 0 29 -15 46 -32z m103 -182 c0 -18 7 -53 15 -76 8 -23 15
-48 14 -54 -1 -17 -49 125 -49 146 0 10 5 18 10 18 6 0 10 -15 10 -34z m670
-142 c0 -8 5 -12 10 -9 6 3 10 2 10 -4 0 -15 -23 -26 -28 -13 -2 7 -10 12 -18
12 -12 0 -12 4 -4 20 12 22 30 18 30 -6z m-45 -24 c3 -5 1 -10 -4 -10 -6 0
-11 5 -11 10 0 6 2 10 4 10 3 0 8 -4 11 -10z m25 -30 c0 -5 -5 -10 -11 -10 -5
0 -7 5 -4 10 3 6 8 10 11 10 2 0 4 -4 4 -10z m-570 -285 c0 -8 -4 -15 -10 -15
-5 0 -10 7 -10 15 0 8 5 15 10 15 6 0 10 -7 10 -15z m40 0 c0 -8 -7 -15 -15
-15 -8 0 -15 7 -15 15 0 8 7 15 15 15 8 0 15 -7 15 -15z m50 0 c0 -8 -7 -15
-15 -15 -8 0 -15 7 -15 15 0 8 7 15 15 15 8 0 15 -7 15 -15z m50 0 c0 -8 -7
-15 -15 -15 -8 0 -15 7 -15 15 0 8 7 15 15 15 8 0 15 -7 15 -15z m40 0 c0 -8
-4 -15 -10 -15 -5 0 -10 7 -10 15 0 8 5 15 10 15 6 0 10 -7 10 -15z"/>
<path d="M1390 2044 c25 -14 61 -40 80 -57 33 -30 33 -30 10 -3 -27 31 -107
86 -124 86 -6 0 9 -12 34 -26z"/>
<path d="M873 2045 c-12 -9 -32 -30 -44 -48 -21 -31 -20 -31 12 5 19 20 43 41
54 47 11 6 15 11 10 11 -6 0 -20 -7 -32 -15z"/>
<path d="M651 1902 c-16 -21 -37 -58 -45 -82 -18 -52 -15 -65 4 -18 8 18 29
57 47 86 39 61 37 67 -6 14z"/>
<path d="M786 1925 c-9 -26 -7 -32 5 -12 6 10 9 21 6 23 -2 3 -7 -2 -11 -11z"/>
<path d="M841 1885 c-12 -31 -21 -61 -20 -68 0 -7 11 17 24 53 13 35 22 66 20
68 -1 2 -12 -22 -24 -53z"/>
<path d="M1360 1936 c0 -2 8 -10 18 -17 15 -13 16 -12 3 4 -13 16 -21 21 -21
13z"/>
<path d="M1405 1876 c10 -16 28 -55 41 -85 13 -31 23 -51 24 -44 0 18 -45 115
-65 138 -16 18 -16 17 0 -9z"/>
<path d="M1031 1844 c0 -11 3 -14 6 -6 3 7 2 16 -1 19 -3 4 -6 -2 -5 -13z"/>
<path d="M1043 1745 c0 -44 2 -61 4 -37 2 23 2 59 0 80 -2 20 -4 1 -4 -43z"/>
<path d="M811 1784 c0 -11 3 -14 6 -6 3 7 2 16 -1 19 -3 4 -6 -2 -5 -13z"/>
<path d="M1274 1785 c15 -58 26 -114 27 -145 1 -22 3 -28 6 -15 7 24 -14 145
-28 165 -8 12 -9 11 -5 -5z"/>
<path d="M570 1708 c-7 -29 -10 -64 -7 -78 3 -20 5 -18 6 10 0 19 6 52 12 73
6 22 8 41 6 44 -3 2 -11 -19 -17 -49z"/>
<path d="M803 1710 c0 -25 2 -35 4 -22 2 12 2 32 0 45 -2 12 -4 2 -4 -23z"/>
<path d="M1477 1675 c3 -33 7 -62 9 -64 7 -8 2 74 -6 99 -5 16 -6 2 -3 -35z"/>
<path d="M511 1694 c0 -11 3 -14 6 -6 3 7 2 16 -1 19 -3 4 -6 -2 -5 -13z"/>
<path d="M798 1588 c-3 -25 1 -51 8 -62 11 -16 12 -10 7 40 -7 73 -10 77 -15
22z"/>
<path d="M443 1575 c0 -27 2 -38 4 -22 2 15 2 37 0 50 -2 12 -4 0 -4 -28z"/>
<path d="M1163 1585 c0 -22 2 -30 4 -17 2 12 2 30 0 40 -3 9 -5 -1 -4 -23z"/>
<path d="M1662 1550 c-1 -36 -4 -90 -7 -120 l-4 -55 10 55 c5 30 8 84 6 120
l-3 65 -2 -65z"/>
<path d="M1393 1560 c0 -25 2 -35 4 -22 2 12 2 32 0 45 -2 12 -4 2 -4 -23z"/>
<path d="M1381 1464 c0 -22 -7 -62 -15 -87 -8 -26 -10 -45 -6 -42 13 8 32 107
27 140 -3 25 -4 23 -6 -11z"/>
<path d="M561 1400 c0 -8 9 -33 20 -55 10 -22 16 -29 13 -16 -10 37 -33 88
-33 71z"/>
<path d="M1169 1214 c-8 -10 -27 -23 -44 -31 l-30 -14 28 6 c30 6 75 41 65 50
-3 3 -11 -2 -19 -11z"/>
<path d="M670 1213 c0 -6 8 -17 18 -24 16 -13 16 -13 2 6 -8 11 -16 22 -17 24
-2 2 -3 0 -3 -6z"/>
<path d="M798 1165 c-8 -19 -11 -32 -6 -29 10 7 31 55 25 60 -2 2 -10 -12 -19
-31z"/>
<path d="M755 1170 c-3 -5 -2 -10 4 -10 5 0 13 5 16 10 3 6 2 10 -4 10 -5 0
-13 -4 -16 -10z"/>
<path d="M1024 1169 c-3 -5 6 -9 20 -9 31 0 34 6 6 13 -11 3 -23 1 -26 -4z"/>
<path d="M375 1010 c-3 -6 1 -7 9 -4 18 7 21 14 7 14 -6 0 -13 -4 -16 -10z"/>
<path d="M290 980 c-9 -6 -10 -10 -3 -10 6 0 15 5 18 10 8 12 4 12 -15 0z"/>
<path d="M299 833 c6 -12 16 -25 21 -28 17 -11 11 5 -11 28 l-21 22 11 -22z"/>
</g>
</svg>
